<?xml version="1.0" standalone="no"?><!-- Generator: Gravit.io --><svg xmlns="http://www.w3.org/2000/svg" xmlns:xlink="http://www.w3.org/1999/xlink" style="isolation:isolate" viewBox="0 0 537.429 537.429" width="537.429" height="537.429"><path d=" M 92.469 356.591 C 90.983 356.91 89.432 356.614 88.167 355.773 C 86.798 354.72 85.923 353.149 85.75 351.43 L 78.897 312.95 L 52.38 317.674 L 59.459 357.411 C 60.057 361.013 61.189 364.506 62.817 367.775 C 64.218 370.598 66.176 373.109 68.574 375.155 C 70.875 377.062 73.587 378.41 76.497 379.091 C 77.047 379.225 77.631 379.278 78.202 379.359 C 81.039 377.982 84.053 377.002 87.157 376.447 Q 89.973 375.936 92.282 375.734 C 93.57 375.633 94.864 375.627 96.153 375.717 C 98.199 374.668 100.121 373.391 101.88 371.91 L 97.334 354.167 C 95.95 355.383 94.274 356.218 92.469 356.591 L 92.469 356.591 Z " fill="rgb(0,0,0)"/><path d=" M 399.969 334.4 Q 401.459 326.561 405.528 322.304 C 406.448 321.367 407.467 320.533 408.569 319.819 L 397.816 321.77 L 399.969 334.4 Z " fill="rgb(255,255,255)"/><path d=" M 251.827 314.445 C 251.751 313.896 251.655 313.332 251.529 312.748 C 250.668 308.606 249.18 304.619 247.118 300.925 C 245.221 297.505 242.655 294.501 239.573 292.094 C 236.49 289.731 232.916 288.087 229.116 287.283 C 224.787 286.413 220.322 286.493 216.027 287.515 C 211.466 288.46 207.113 290.221 203.178 292.713 C 199.454 295.07 196.23 298.137 193.692 301.74 C 191.174 305.351 189.425 309.44 188.554 313.755 C 187.629 318.436 187.703 323.26 188.771 327.911 C 189.463 331.21 190.626 334.393 192.224 337.361 L 215.795 329.037 L 251.98 316.047 C 251.954 315.529 251.903 314.998 251.827 314.445 Z  M 212.186 317.528 C 211.855 315.865 211.745 314.167 211.859 312.476 C 211.952 310.976 212.314 309.505 212.928 308.133 C 214.116 305.493 216.519 303.6 219.364 303.064 Q 226.703 301.485 230.543 309.025 L 212.186 317.528 Z " fill="rgb(0,0,0)"/><path d=" M 457.445 324.604 C 454.752 325.024 452.435 326.733 451.237 329.182 C 450.617 330.453 450.232 331.827 450.103 333.236 C 449.941 334.825 449.991 336.429 450.252 338.005 L 467.781 330.552 Q 464.4 323.344 457.445 324.604 Z " fill="rgb(0,0,0)"/><path d=" M 442.845 0 L 94.158 0 C 69.185 0 45.236 9.92 27.578 27.578 C 9.92 45.236 0 69.185 0 94.158 L 0 442.845 C 0.002 494.845 42.157 536.999 94.158 537 L 442.845 537 C 494.844 536.997 536.998 494.844 537 442.845 L 537 296.512 L 464.78 309.617 C 465.567 309.735 466.345 309.865 467.096 310.055 C 470.647 310.929 473.959 312.583 476.791 314.897 C 479.618 317.257 481.94 320.163 483.619 323.44 C 485.45 326.977 486.728 330.772 487.41 334.696 C 487.507 335.247 487.584 335.783 487.641 336.298 C 487.697 336.821 487.731 337.324 487.738 337.811 L 453.301 348.933 C 454.461 351.357 456.501 353.249 459.007 354.223 C 461.797 355.1 464.769 355.225 467.623 354.584 C 473.619 353.34 479.277 350.817 484.211 347.188 L 490.03 362.932 C 483.098 367.7 475.201 370.881 466.901 372.25 C 462.295 373.141 457.565 373.181 452.945 372.368 C 448.778 371.628 444.801 370.063 441.246 367.767 C 437.802 365.503 434.862 362.553 432.61 359.102 C 427.839 351.561 426.232 342.444 428.138 333.726 C 429.09 329.698 430.857 325.907 433.332 322.588 C 435.828 319.274 438.955 316.486 442.532 314.386 C 443.201 313.983 443.899 313.635 444.596 313.283 L 416.233 318.428 L 422.729 336.143 Q 411.519 338.175 406.705 341.585 Q 401.888 344.985 402.864 350.371 L 408.562 381.841 L 383.73 386.337 L 373.018 326.27 L 373.022 326.266 C 374.593 324.883 375.981 323.305 377.153 321.57 C 378.86 319.294 380.102 316.704 380.806 313.948 C 381.496 310.857 381.538 307.656 380.928 304.549 C 380.462 301.48 379.327 298.551 377.603 295.969 C 376.062 293.736 374.051 291.868 371.712 290.495 C 369.27 289.091 366.6 288.128 363.825 287.648 C 360.738 287.101 357.605 286.866 354.471 286.947 C 353.705 286.995 352.937 286.958 352.18 286.837 C 351.426 286.724 350.69 286.518 349.986 286.225 C 349.35 285.965 348.771 285.583 348.28 285.102 C 347.817 284.644 347.512 284.05 347.407 283.407 Q 346.939 280.767 354.39 279.438 Q 360.381 278.366 370.057 279.632 L 370.014 263.815 C 366.652 262.844 363.151 262.446 359.657 262.639 C 355.866 262.85 352.092 263.296 348.356 263.975 C 344.825 264.573 341.377 265.589 338.085 267.002 C 335.214 268.221 332.606 269.985 330.406 272.198 C 328.345 274.321 326.817 276.904 325.95 279.734 C 325.014 283.005 324.809 286.442 325.35 289.802 C 325.804 292.724 326.745 295.55 328.131 298.162 C 329.298 300.311 330.931 302.171 332.912 303.604 C 334.967 305.023 337.277 306.032 339.715 306.576 C 342.621 307.224 345.587 307.564 348.563 307.59 C 349.703 307.602 350.793 307.671 351.843 307.784 C 352.816 307.882 353.774 308.091 354.698 308.409 C 355.5 308.686 356.247 309.103 356.903 309.641 C 357.514 310.154 357.971 310.824 358.226 311.58 Q 358.761 314.596 352.533 315.707 C 351.53 315.879 350.519 315.996 349.504 316.057 C 348.381 316.121 347.266 316.17 346.154 316.195 C 345.048 316.223 344.006 316.223 343.037 316.203 C 342.063 316.174 341.265 316.159 340.632 316.138 C 339.955 316.134 339.092 316.069 338.044 315.956 C 336.995 315.842 335.762 315.708 334.351 315.574 L 334.185 330.913 C 336.549 331.51 338.964 331.876 341.398 332.008 L 313.441 337.081 C 317.046 335.58 320.483 333.704 323.696 331.485 L 317.56 314.739 Q 308.467 321.028 299.913 322.556 C 296.879 323.223 293.723 323.077 290.763 322.135 C 288.104 321.095 285.942 319.081 284.717 316.503 L 321.335 304.788 C 321.327 304.269 321.295 303.739 321.237 303.183 C 321.181 302.631 321.104 302.064 320.998 301.476 C 320.283 297.306 318.937 293.269 317.004 289.505 C 315.229 286.021 312.77 282.929 309.775 280.415 C 306.775 277.946 303.262 276.179 299.492 275.241 C 295.197 274.22 290.732 274.142 286.404 275.014 C 281.812 275.799 277.4 277.406 273.379 279.758 C 269.575 281.983 266.246 284.936 263.583 288.448 C 260.94 291.968 259.05 295.993 258.028 300.275 C 255.984 309.527 257.665 319.212 262.707 327.235 C 265.082 330.914 268.197 334.059 271.855 336.467 C 275.621 338.924 279.841 340.599 284.267 341.394 C 285.268 341.584 286.29 341.714 287.32 341.82 L 281.566 342.862 L 284.165 357.204 L 270.602 359.661 L 274.328 380.247 C 274.527 382.097 275.597 383.742 277.207 384.675 C 278.999 385.526 281.028 385.739 282.957 385.279 C 284.843 384.915 286.61 384.092 288.103 382.883 L 292.088 399.633 C 287.115 403.42 281.295 405.941 275.131 406.979 C 272.088 407.585 268.952 407.56 265.919 406.906 C 263.178 406.292 260.622 405.039 258.458 403.249 C 256.199 401.342 254.35 398.995 253.025 396.352 C 251.469 393.254 250.387 389.939 249.817 386.52 L 245.884 364.137 L 238.411 365.492 L 235.69 350.469 L 245.004 348.782 L 248.029 327.126 Q 238.936 333.415 230.383 334.944 C 227.349 335.61 224.192 335.464 221.231 334.522 C 218.574 333.481 216.412 331.467 215.186 328.89 L 227.136 388.794 C 227.323 390.656 228.396 392.314 230.019 393.247 C 231.814 394.081 233.838 394.285 235.764 393.826 C 237.647 393.453 239.412 392.631 240.909 391.43 L 244.895 408.18 C 239.923 411.966 234.105 414.487 227.942 415.524 C 224.898 416.133 221.761 416.109 218.726 415.455 C 215.987 414.838 213.431 413.585 211.265 411.798 C 209.006 409.89 207.158 407.543 205.832 404.9 C 204.278 401.801 203.197 398.487 202.624 395.068 L 195.575 358.469 L 184.2 360.533 L 168.398 271.84 L 142.72 280.566 L 148.502 313.007 Q 144.08 306.596 138.409 304.493 C 134.311 303.066 129.903 302.776 125.653 303.653 C 121.63 304.353 117.811 305.93 114.466 308.272 C 111.095 310.609 108.209 313.58 105.971 317.018 C 103.646 320.599 102.015 324.585 101.162 328.768 C 98.465 341.945 103.367 355.523 113.858 363.939 C 117.096 366.509 120.809 368.416 124.785 369.551 C 126.376 369.997 128.006 370.292 129.653 370.431 L 98.709 376.05 C 99.528 376.18 100.335 376.261 101.17 376.472 C 102.841 376.915 104.484 377.454 106.093 378.086 L 106.709 394.597 C 102.776 394.001 98.774 394.024 94.849 394.665 C 93.183 394.943 91.588 395.542 90.151 396.43 C 88.864 397.241 87.764 398.316 86.924 399.584 C 86.079 400.888 85.515 402.353 85.268 403.887 C 84.751 407.367 85.395 410.921 87.1 413.998 C 87.885 415.363 88.938 416.555 90.196 417.503 C 91.45 418.427 92.894 419.061 94.423 419.36 C 96.118 419.687 97.862 419.684 99.556 419.351 C 103.312 418.618 106.919 417.263 110.228 415.341 L 115.591 431.84 C 113.157 433.817 110.43 435.403 107.507 436.539 C 104.576 437.619 101.554 438.432 98.477 438.968 C 94.111 439.805 89.628 439.831 85.252 439.045 C 81.236 438.316 77.406 436.789 73.99 434.552 C 70.608 432.289 67.739 429.341 65.569 425.899 C 63.197 422.128 61.597 417.923 60.863 413.528 C 60.007 409.134 60.098 404.608 61.131 400.253 C 62.096 396.228 63.864 392.438 66.327 389.112 C 68.785 385.816 71.859 383.027 75.377 380.9 C 75.927 380.564 76.498 380.276 77.064 379.975 L 47.418 385.357 L 47.418 106.267 C 47.418 73.766 73.765 47.419 106.266 47.419 L 430.732 47.419 C 446.34 47.418 461.309 53.618 472.346 64.654 C 483.383 75.691 489.583 90.659 489.584 106.267 L 489.584 305.117 L 537 296.512 L 537 94.158 C 537 42.157 494.846 0.002 442.845 0 L 442.845 0 Z  M 281.514 304.873 C 281.242 303.2 281.192 301.499 281.364 299.813 C 281.51 298.318 281.923 296.86 282.585 295.511 C 283.864 292.914 286.332 291.106 289.194 290.669 Q 296.584 289.349 300.158 297.019 L 281.514 304.873 Z  M 290.418 341.261 L 317.739 336.302 L 323.529 368.277 C 323.718 369.401 324.148 370.47 324.791 371.411 C 325.398 372.299 326.187 373.049 327.105 373.609 C 328.043 374.176 329.076 374.567 330.155 374.761 C 331.28 374.961 332.432 374.958 333.556 374.753 C 335.689 374.375 337.585 373.164 338.824 371.387 C 339.422 370.525 339.852 369.558 340.093 368.537 C 340.348 367.464 340.372 366.348 340.162 365.265 L 334.591 333.245 L 360.854 328.476 L 366.481 359.543 C 367.335 363.854 367.215 368.301 366.129 372.559 C 365.089 376.509 363.194 380.183 360.578 383.32 C 357.822 386.58 354.462 389.277 350.684 391.263 C 346.477 393.497 341.939 395.043 337.243 395.841 C 332.567 396.721 327.785 396.889 323.059 396.339 C 318.748 395.853 314.568 394.555 310.741 392.512 C 307.087 390.537 303.914 387.781 301.447 384.439 C 298.823 380.825 297.082 376.647 296.362 372.239 L 290.418 341.261 Z  M 157.822 365.322 L 144.952 367.657 C 146.58 366.863 148.09 365.847 149.438 364.637 C 152.582 361.623 154.765 357.748 155.715 353.498 L 157.822 365.322 Z  M 129.217 342.587 C 128.245 341.099 127.592 339.425 127.299 337.672 C 126.993 335.993 127.017 334.27 127.372 332.6 C 127.712 330.98 128.346 329.437 129.242 328.046 C 130.149 326.666 131.318 325.479 132.684 324.552 C 134.126 323.572 135.762 322.915 137.48 322.625 C 139.058 322.341 140.678 322.395 142.233 322.783 C 143.79 323.161 145.264 323.82 146.583 324.729 C 147.921 325.665 149.08 326.834 150.005 328.179 C 150.964 329.559 151.647 331.111 152.017 332.75 L 152.106 333.252 C 152.406 334.912 152.378 336.615 152.021 338.264 C 151.684 339.881 151.05 341.422 150.152 342.809 C 149.253 344.192 148.097 345.39 146.746 346.336 C 145.346 347.327 143.741 347.991 142.05 348.279 C 140.412 348.577 138.729 348.532 137.108 348.149 C 135.508 347.78 133.996 347.102 132.656 346.154 C 131.296 345.191 130.13 343.981 129.217 342.587 L 129.217 342.587 Z  M 114.965 373.099 L 141.207 368.334 L 146.817 400.277 C 147.008 401.402 147.439 402.473 148.08 403.416 C 148.688 404.303 149.477 405.051 150.395 405.61 C 151.332 406.178 152.366 406.569 153.444 406.761 C 154.57 406.964 155.722 406.961 156.846 406.753 C 158.979 406.375 160.874 405.164 162.113 403.387 C 162.711 402.527 163.141 401.561 163.382 400.542 C 163.636 399.467 163.66 398.35 163.452 397.265 L 157.844 365.443 L 184.236 360.739 L 189.767 391.544 C 190.62 395.855 190.5 400.302 189.414 404.56 C 188.377 408.512 186.483 412.187 183.867 415.325 C 181.11 418.583 177.751 421.278 173.973 423.264 C 169.766 425.497 165.228 427.044 160.532 427.846 C 155.856 428.727 151.074 428.894 146.348 428.341 C 142.038 427.854 137.859 426.556 134.03 424.517 C 130.375 422.542 127.201 419.784 124.736 416.44 C 122.112 412.827 120.372 408.65 119.654 404.243 L 114.965 373.099 Z " fill="rgb(0,0,0)"/><path d=" M 74.478 286.915 C 73.52 285.49 72.306 284.255 70.898 283.274 C 69.395 282.228 67.71 281.472 65.931 281.043 C 63.969 280.573 61.93 280.526 59.95 280.906 C 58.135 281.229 56.392 281.87 54.8 282.8 C 53.246 283.694 51.875 284.873 50.757 286.274 C 49.658 287.665 48.839 289.255 48.345 290.957 C 47.834 292.721 47.744 294.581 48.082 296.386 C 48.381 298.157 49.067 299.839 50.093 301.313 C 52.152 304.257 55.286 306.274 58.818 306.929 C 60.723 307.29 62.678 307.293 64.584 306.936 C 68.181 306.297 71.423 304.372 73.707 301.52 C 74.804 300.135 75.613 298.546 76.087 296.845 C 76.58 295.057 76.655 293.18 76.306 291.359 C 76.015 289.766 75.392 288.252 74.478 286.915 Z " fill="rgb(0,0,0)"/><path d=" M 190.144 269.003 L 200.305 281.461 L 238.906 256.81 L 222.1 236.064 L 190.144 269.003 L 190.144 269.003 Z " fill="rgb(0,0,0)"/></svg>