<?xml version="1.0" encoding="utf-8"?>
<!-- Generator: Adobe Illustrator 21.1.0, SVG Export Plug-In . SVG Version: 6.00 Build 0)  -->
<svg version="1.1" id="Calque_1" xmlns="http://www.w3.org/2000/svg" xmlns:xlink="http://www.w3.org/1999/xlink" x="0px" y="0px"
	 viewBox="0 0 464.7 463.6" style="enable-background:new 0 0 464.7 463.6;" xml:space="preserve">
<style type="text/css">
	.st0{fill:#C9C9C9;}
	.st1{fill:#FFFFFF;}
	.st2{fill:none;}
	.st3{fill:#A5A5A5;}
	.st4{fill:#EDEDED;}
	.st5{fill:#777777;}
	.st6{fill:#565656;}
	.st7{fill:#A0A0A0;}
	.st8{fill:#E2E2E2;}
	.st9{fill:#CD584C;}
</style>
<g id="Calque_3">
	<circle class="st0" cx="231.8" cy="231.8" r="231.8"/>
	<ellipse class="st1" cx="233.8" cy="210.8" rx="61.5" ry="18.1"/>
	<g>
		<path class="st2" d="M55.1,362.2l2.8,2.2l10.8,6.6l11.7,1.9l16.5-0.6l-3.8-30.4l0.5-70l0.6-20.1l2.1-9.2c0,0,2.9-6.7,9.7-8.1
			c7.1-2.5,12.8-3.7,12.8-3.7l8.2-1h4.5l5,9.4l3.6,6.1l1.8,10.4l11.6,2l2.7,14.8l14.4,9.5l54.4,39.8l38.6-12.2
			c0,0,24-43.6,24.3-44.6c0.4-1,20.1-28.6,20.1-28.6l16.5-14.4c0,0,28.2-3.6,36.3,16.1c3.8,12,9,40.9,9,40.9l9,65.8l13,22.9
			c0,0,19.9-5.5,21.2-8.7c0.9,2.2,2.1,14.5,2.1,14.5l-1.1,3.1c31.7-39.7,50.7-89.9,50.7-144.7c0-128-103.8-231.8-231.8-231.8
			S1.3,103.7,1.3,231.8c0,55.8,19.7,107,52.6,147L55.1,362.2z"/>
		<path class="st3" d="M413.3,358.9c-1.4,3.1-21.2,8.7-21.2,8.7l-13-22.9l-9-65.8c0,0-5.2-28.9-9-40.9
			c-8.2-19.8-36.3-16.1-36.3-16.1l-16.5,14.4c0,0-19.7,27.5-20.1,28.6c-0.4,1-24.3,44.6-24.3,44.6l-38.6,12.2l-54.6-39.8l-14.4-9.5
			l-2.7-14.8l-11.6-2l-1.8-10.4l-3.6-6.1l-5-9.4h-4.5l-8.2,1c0,0-5.6,1.1-12.8,3.7c-6.8,1.4-9.7,8.1-9.7,8.1l-2.1,9.2l-0.6,20.1
			l-0.5,70l3.8,30.4l-16.5,0.6l-11.7-1.9L58,364.3l-2.8-2.2l-1.1,16.6c42.5,51.8,107,84.8,179.3,84.8c73.3,0,138.7-34,181.1-87.2
			l1.1-3.1C415.4,373.4,414.2,361.1,413.3,358.9z"/>
	</g>
</g>
<g id="Calque_2">
	<path class="st4" d="M304.2,193.5l2.2-10.2l2-6.6l-2.3-0.6l-8.4-8.2l-1.5-12.6l-0.1-2.3c0,0-2.9-5-5-5.3c-1.5-0.3-6-2.5-6-2.5
		l-4.7-6.8l-7.9-15l-17.2-0.5l-11.4-3.4l-8.9-7l-7.3-6l-3.3,0.9l-5.6,1.6l-14.5,0.6l-8.7-0.3l-8.2-2.9l-5.6-3.6l-4.3,5l-4.5,9.9
		l-2.1,0.6c0,0-3.8,4.7-5.4,9.8s-4.7,25.3-4.7,25.3l-1.3,13.2c0,0-0.8,6.4-4.5,10.9c-2.9,4.3-10.9,15.8-10.9,15.8s-1.7,2.1-1.9,3.3
		c1,1.2,2.5,2.6,2.5,2.6l5.8,2.9v19l3.2,35.2l2.6,14.6l0.6,5.5l1.7,5l8.4,12.2l6.3,7.2l11.9,12.7l8.6,11.1l7,6.9l2,2.2
		c0,0,9.2,13.8,31.7,13.2c10.5,0,19.2,1.9,30.2-12.5c3.9-5.1,5.2-7.7,5.2-7.7l10.6-19l10.2-18.6l8.3-16.6l2.2-9.2l3.4-7.8v-4.2
		l1.3-19.4l0.5-20.2l0.4-12.9l3-2.9L304.2,193.5z M203.8,214.5l-8.1,2.7l-7.6,0.5l-5.4-2.9l-3.6-4l-0.4-4.4c0,0,4-7,5.3-7
		s13.3-1.4,13.3-1.4l4.2,1.1l5.1,7.8l0.2,3L203.8,214.5z M278.7,209.7l-4.2,3.6c0,0-6.5,1.1-8.8,0.6s-8.3-3.6-8.3-3.6l-2.4-2
		c0,0-1-1.9-0.8-3.4c0,0,3.3-6.8,5-7.1c1.7-0.3,6.8-3.4,11.7-1.8s8.6,4.8,8.9,8.8C279.6,207.9,278.7,209.7,278.7,209.7z"/>
	<path class="st5" d="M242.2,197.8l1.8,14v2.3l4.3,4.3l2.8,2.8l6.3,1.8c0,0,13.4,0.2,13.7,0c0.3-0.2,18.9-2.2,18.9-2.2l1.2-0.9
		l1.8-15.2l-0.8-13.7l-23.8-1.6l-15.6,1.6l-9.6,3.3l-0.4-0.1l-1.5-0.3l-1-3l-0.7-1.6l4.2-1.8l8.5-1.8l16.1-2.3l9.7-1h9.2l15.4,2.5
		l2.1,2.1v5.2l-2.3,1.6l-2.7,0.5l-0.7,14l-1.5,14.6l-3.3,3.1l-7.4,1l-19.2,2l-10.7,1.1l-4.5-0.3l-4.7-1.8l-4.7-3.5l-3.5-1.9
		l-1.8-20.6v-4.3l2.8-3.4l1.8,0.1L242.2,197.8z"/>
	<polyline class="st5" points="217.2,190.9 212.4,189.3 202.8,187.3 186.3,187.3 170.8,187.6 159.1,189.5 156.7,190.9 156.7,196.6 
		158.2,197.1 163.2,197.6 162.5,202.2 162.3,212.7 164.9,225.5 167.7,230.8 170.5,233 180.5,234.4 209.1,234.4 214,231.1 
		219.7,223.2 218.9,200.6 217.6,198.3 216.9,200.8 216.7,216 214.7,218.7 208.5,226.6 201.5,229 193.1,230 182.8,229.3 173.8,226.9 
		172.5,225.6 168.9,219.8 168.1,208.8 168.1,194.5 171.1,193.4 189.6,192 207.4,193.3 215.6,196.3 217.1,196.9 217.3,191.9 
		217.2,190.9 	"/>
	<polygon class="st6" points="156.7,189.8 155,189.8 150.8,192.5 145.8,199.5 150.6,202.2 157,196.7 	"/>
	<polygon class="st6" points="305.6,186.8 313.6,193.4 309.2,196.4 304.2,193.2 	"/>
	<path class="st5" d="M242.1,198.6l1.8,14v2.3l4.3,4.3l2.8,2.8l6.3,1.8c0,0,13.4,0.2,13.7,0c0.3-0.2,18.9-2.2,18.9-2.2l1.2-0.9
		l1.8-15.2l-0.8-13.7l-23.8-1.6l-15.6,1.6l-9.6,3.3l-0.4-0.1l-1.5-0.3l-1-3l-0.7-1.6l4.2-1.8l8.5-1.8l16.1-2.3l9.7-1h9.2l15.4,2.5
		l2.1,2.1v5.2l-2.3,1.6l-2.7,0.5l-0.7,14l-1.5,14.6l-3.3,3.1l-7.4,1l-19.2,2l-10.7,1.1l-4.5-0.3l-4.7-1.8l-4.7-3.5l-3.5-1.9
		l-1.8-20.6v-4.3l2.8-3.4l1.8,0.1L242.1,198.6z"/>
	<polyline class="st5" points="217.1,191.7 212.3,190 202.7,188 186.2,188 170.7,188.4 159,190.2 156.5,191.7 156.5,197.3 
		158.1,197.8 163.1,198.3 162.4,202.9 162.2,213.4 164.7,226.3 167.6,231.5 170.4,233.7 180.4,235.1 209,235.1 213.9,231.8 
		219.5,223.9 218.8,201.4 217.5,199 216.8,201.6 216.5,216.7 214.6,219.4 208.4,227.3 201.4,229.7 193,230.7 182.7,230 173.7,227.6 
		172.4,226.4 168.8,220.5 168,209.6 167.9,195.2 170.9,194.1 189.4,192.8 207.2,194 215.4,197 216.9,197.6 217.2,192.6 217.1,191.7 
			"/>
	<polygon class="st6" points="156.5,190.5 154.8,190.5 150.7,193.2 145.7,200.2 150.5,202.9 156.9,197.4 	"/>
	<polygon class="st6" points="305.5,187.5 313.5,194.2 309.1,197.1 304.1,193.9 	"/>
	<path class="st7" d="M306.2,185.9l2-8.8l-0.1-0.8h-1.9l-9-8.2l-1-11.1v-3.7c0,0-2.6-5-4.9-5.6s-7.4-3.8-7.4-3.8l-7.6-11.8l-3.6-8.3
		l-15.8-0.8l-12.6-3.7l-8.7-5.3l-7.9-7.5l-4.3,1.2l-2.2,1l-11.6,0.9h-13l-8.7-3l-5.9-4.1l-4.6,5.4l-4.3,9.7l-2.1,0.6l-5.1,8.4
		l-4.2,18.9l-2.2,21.5l-1.5,5.7l-3.7,6l-10.9,15.6l-1.3,2.6l-9.8-3l-6.5,4.5l-1,4.5l-0.5,1.5l-2.4-2l-1.9-2.2l1.7-9.2l3.1-5.3
		l0.8-0.7l-4.4-8.8l-1.1-13.8l2.3-10.6l3.9-5.9l-0.8-7.4l-0.8-8.1l4.1-10.2l12.5-12.4l11.6-6.7l5.3-2.3h3.8l2.4,0.9l4.3-10.9
		l6.7-6.6l9.3-6.8l6.5-4l9.9-3.1l5.3-1.3l16.4-3.5l33.3-1.1l26.2,7.6l3,1l4.4,2.8l10.2,6.8l12.8,19.2l6.7,13.3l1.3,6.1l1.5,12.8v5.8
		L321,149l0.8,26.5l1.2,2.8l1.7,2.8l-3,5.9l-8.6,5.1l-1.9-0.8l-5.5-4.8L306.2,185.9z"/>
	<polygon class="st8" points="150.6,202.2 144.6,198.6 136,194.5 131.6,194.2 125.7,198.6 125.4,200.7 124.8,203.9 124.7,209.9 
		128.5,221.9 136,238.3 139.7,244.8 141.3,251.1 141.9,255.5 153.6,257.4 150.3,222.5 	"/>
	<polygon class="st8" points="306.6,198.9 314.4,192 320.1,188.9 322.4,189.7 328,192.3 328.8,195.3 329.1,197.5 328.5,209.5 
		322,226.2 320.1,231.4 317.1,239.8 315.5,247.2 315,250.8 313.8,253.1 310.6,254.7 304.7,254.7 304.2,249.6 305.3,235 305.7,220.4 
		306.4,200.3 	"/>
	<path class="st4" d="M97.2,372.4l2.2-21.4l2.1-5.8l21.3-26.6c0,0,1-2.1,0.6-2.9s-7.7-13.1-10.8-15.1c-3-2.9-2.9-3.7-2.9-3.7l3.3-39
		l0.2-16.2c0,0-8.4-1.5-10.4,5.4s-6.1,40.6-6.1,40.6v1.9c0,0,0.2,0.6-0.4,0.5c-0.6-0.1-2-4.4-2-4.4l-3.1-16.4l-6.6-27.8
		c0,0-6.1-6-9.4-1.2c-0.2,2.4,0.5,5.3,0.5,5.3l4.1,29l2.5,19.3l-1.4,0.1l-2.8-3.1l-6.5-4.6l-2.6-0.4l-2.3,0.2l1.2,9.1l-1.2-0.7
		l-4.1-1.6l-2.9,1.2l0.3,3.8l2.5,10l-1.4,2.4l-1.4,4.7l0.4,3.3l4.4,11.3l7.1,13.2l-1.3,10.3L67.6,370l2.2,1.3c0,0,9.5,2,9.7,1.9
		C79.7,373.1,97.2,372.4,97.2,372.4z"/>
	<path class="st4" d="M400.2,365.7l-1.1-32.9l4.3-13.6l6.5-22L409,296l-2.7-1.5l3.1-9.1l-1.2-3.5l-5.2,1.7l-5.4,4.2l2.7-9.8
		l-0.7-3.1l-4.9-1.9l-5.3,2.2l-5.9,9.2l-2.6-1.5v-39.5v-16.5c0,0-5.3-3.2-7.2,0s-4.5,5.6-4.5,5.6l1.2,33.3l-1.2,22.1l-7-13.9
		l-14.9-35.7c0,0-5.2-8.8-8,2.8c0,7.5,0.7,16.2,0.7,16.2l13.6,35.8l-3.3,5.5c0,0-8.3,16-7.9,18c0.4,1.9,1,4.9,13.5,7.4
		c1.9,2.4,7.1,8.7,9.5,9.6c0.4,5.8,5.9,29.9,5.9,29.9l15,4.6L400.2,365.7z"/>
	<path class="st5" d="M371.2,363.1l-3.5-16.2c0,0-4.7,1.4-5.1,1.5c-0.4,0.1-8.5,5.9-8.5,5.9l8.2,5L371.2,363.1z"/>
	<polygon class="st5" points="67.6,370.4 70.4,353 63.8,352.6 58.8,357.6 54.4,361.7 56.5,363.4 66.9,371 	"/>
</g>
<g id="Calque_1_1_">
	<g>
		<path d="M96.4,289.9c-0.6,1.3-1.3,0.7-1.6-0.1c-0.5-1.4-0.9-2.9-0.9-4.4c-0.3-5.6-2.2-10.8-3.5-16.1c-1.2-4.9-2.2-9.8-3.3-14.6
			c-0.9-4.1-1.9-8.1-2.8-12.2c-0.4-1.5-1.4-2.3-2.8-2.6c-0.7-0.2-1.4-0.4-2.1-0.6c-2.5-0.8-4,0.3-3.8,2.9c0.2,2.2,0.8,4.5,1.1,6.7
			c1,6.6,1.9,13.2,2.8,19.9c0.7,5,1.4,9.9,2,14.9c0.5,3.9,0.9,7.7,1.4,11.8c-1.7-1.1-1.5-3-1.8-4.5c-0.8-5.3-0.6-10.6-1.8-15.9
			c-0.9-4-1-8.1-1.5-12.2c-0.6-4.5-1.4-8.9-2.2-13.4c-0.4-2.3-1.1-4.6-1.6-6.9s1.6-4.9,3.9-4.8c3.6,0.1,7,2.3,7.7,5.2
			c0.6,2.1,1,4.3,1.4,6.4c1.8,7.9,3.6,15.8,5.7,23.7c0-2.1,0-4.3,0-6.4c0-3.7-0.9-7.4,0-11.1c0.7-2.7,0.5-5.7,1.3-8.4
			c0.7-2.5,1.8-5.1,3.3-7.2c2.6-3.6,6.5-5.5,10.8-6.7c2.1-0.6,4.1-1.2,6.1-1.9c5.3-1.8,10.6-2.3,16.3-1.6
			c-3.4-7.9-6.1-15.9-6.8-24.7c-0.7-0.5-1.5-1-2.3-1.7c-2.1-1.8-1.3-4.2-1.2-6.4c0.2-3.5,0.6-6.9,2.8-9.8c0.3-0.5,0.8-0.9,1.3-1.1
			c0.2-0.1,0.8,0.2,1,0.4c0.1,0.1,0,0.7-0.3,0.9c-3.4,2.5-3.1,6.4-3.9,9.8c-0.2,0.7-0.2,1.5-0.3,2.3c0,1.6,1.1,3.1,3,3.8
			c0.1-0.8,0.1-1.5,0.3-2.2c0.1-0.4,0.7-0.7,1-1c0.1,0.5,0.4,1,0.3,1.5c-0.1,0.8-0.3,1.6-0.6,2.7c1-0.1,1.7-0.2,2.5-0.3
			c0,0.1,0.1,0.2,0.1,0.2c-0.8,0.4-1.5,0.7-2.7,1.3c0.4,2.4,0.6,5,1.3,7.5c1.1,4.1,2.2,8.3,3.8,12.2c1.9,4.5,4.4,8.7,6.7,13
			c0.8,1.5,1.2,3.1,2.2,4.4c2.7,3.5,2.6,7.6,3.2,11.6c0.1,0.4,0.7,1.1,1.2,1.2c2.9,0.5,5.9,0.8,8.8,1.2c0.2,0,0.5,0.1,0.9,0.1
			c-0.1-1.9-0.2-3.7-0.4-5.6c-0.6-5.5-1.3-10.9-1.7-16.4c-0.5-5.6-0.9-11.3-1-17c-0.1-5,0.1-10.1,0.1-15.4c-0.5-0.3-1.5-1.1-2.5-1.3
			c-1.8-0.3-3.1-1.3-4.6-2.4c-2.3-1.7-5.2-2.5-7.9-3.6c-2.1-0.9-3.9,0.1-5.5,1.3c-1.1,0.9-2.4,1.5-3.5,2.3c-0.1-0.2-0.2-0.3-0.3-0.5
			c2.2-1.5,4.3-3.1,6.8-4.8c4,0.7,8.3,1.9,12.1,4.9c2.4-2.6,4.8-5.1,7.2-7.6c1.1-1.2,2.4-1.9,4.4-0.8c-0.7,0.4-1.2,0.7-1.7,1
			c-0.8,0.6-2.5,0.5-1.7,2.4c0.1,0.2-0.3,0.6-0.5,0.9c-1.5,1.9-3,3.8-4.6,5.7c0.1,0,0.4,0.1,0.6,0.2c2.5,1.5,2.5,1.5,4.7-0.5
			c1.1-1,2.2-2,3.3-3.1c-0.1-1.1-0.3-2.3-0.4-3.4c-0.1-2.9,1.5-4.5,4.4-4.7c1.4-0.1,2.7-0.3,4.1-0.4c6.1-0.4,12.1-0.8,18.2-1.1
			c1.4-0.1,2.9-0.2,4.3-0.2c3.2,0,6.4,0.1,9.6,0.1c1.1,0,2.3,0.3,3.4,0.2c4.4-0.4,8.6,0.5,12.7,1.6c1.9,0.5,3.5,1.8,5.3,2.8
			c2.2-3.8,6.3-4.2,10.2-5c3.8-0.8,7.4,0.2,11,1.6c1.6,0.6,3,3.9,2.7,6.3c0.3,0,0.6,0.1,0.8,0c4.2-1.3,8.3-3.2,12.6-3.8
			c6-0.9,12.2-1.1,18.2-1.1c6.3,0,12.6,0.5,18.9,0.8c0.4,0,0.8,0.2,1.4,0.3c0.2,4.2,0.6,8.4,0.4,12.5c-0.2,5-1,9.9-1.5,14.9
			c-0.1,1,0,2.2-0.6,2.8c-1,0.9-2.3,1.6-3.6,1.8c-3.9,0.5-7.8,0.7-11.8,1c-5,0.3-10,0.6-15,0.8c-3.7,0.2-7.4-0.3-10.6-1.9
			c-2-1-3.5-3.1-5.2-4.7c-0.8-0.8-1.5-1.6-2-2.6s-0.8-2.2-0.9-3.4c-0.4-4.4-0.7-8.9-1-13.3c0-0.4,0.3-0.9,0.5-1.3
			c0.3,0.4,0.7,0.7,0.7,1.1c0.4,4.8,0.7,9.6,1.2,14.4c0.1,1.1,0.9,2.1,1.6,3c1.3,1.6,2.5,3.3,4.1,4.4c1.7,1.2,3.8,1.8,5.8,2.3
			c4.7,1.3,9.5,0,14.3-0.1c3.6-0.1,7.3-0.3,10.9-0.6c3.3-0.3,6.6-0.8,9.7-1.1c2-9.7,2.3-19.1,1.3-28.5c-2.7-0.3-5.3-0.9-7.9-0.9
			c-7.5-0.1-15.1-0.1-22.6,0c-6.1,0.1-11.8,2.1-17.5,3.9c-0.8,0.2-1.7,0-2.8,0c-2.8,2.4-2.8,5.8-2.2,9.4c0.4,2.5,0.2,5.1,0.4,7.7
			c0.5,5.6,1.1,11.3,1.7,16.9c0.5,4.5,1,9,1.8,13.5c0.6,3.5,1.8,7,2.8,10.5c0.1,0.5,1.1,0.7,1.4,1.1c1.4,1.7,2.7,3.4,3.9,5.3
			c0.4,0.6,0.3,1.6,0.1,2.4c-0.9,3.3-2.6,6.2-5.3,8.3c-3.4,2.7-7.4,4.5-11.8,4.4c-5.9-0.2-11.3-2.1-16-5.8c-2-1.5-2.4-3.6-1.1-6.9
			c0.9-2.4,2.1-4.8,3-7.3c0.4-1,0.5-2.2,0.5-3.3c0-5.8-0.1-11.6-0.3-17.3c-0.1-2.7-0.5-5.3-0.8-8.2c-1.6,2.1-3.1,4-4.6,5.9
			c-2.2,2.7-4.8,4.2-8.5,4.4c-7.2,0.4-14.3,0.2-21.5-0.5c-3.9-0.4-7.8-0.2-11.7-0.6c-3.3-0.4-5.9-1.9-7.3-5.5
			c-2.6-6.7-3.7-13.6-4.2-20.7c-0.2-3.2,0.4-6.5,0.7-9.9c-1.9,0-4,0-6.1,0c-0.9,0-4.9,4.1-4.9,5.2c-0.1,3.8,0,7.5,0,11.5
			c1.1,0.1,2.6,0.3,4,0.4c0,0.2,0,0.3,0,0.5c-1.4,0.1-2.8,0.2-4.2,0.3c0.1,0.9,0.2,1.6,0.3,2.4c1.9-0.6,3.6-1.8,5.7-0.8
			c-1.9,0.6-3.7,1.2-5.7,1.8c0.1,0.7,0.2,1.2,0.3,1.7c1.9-0.6,3.7-1.5,5.9-0.3c-2.2,0.4-4.1,0.8-6.3,1.2c1.4,14.8,2.7,29.2,4.1,43.7
			c0.3-0.1,0.5-0.2,0.3-0.1c0.3,2.1,0.6,4.4,0.9,6.6h-0.1c-0.5-1.4-1-2.7-1.7-4.6c-0.4,1.4-0.7,2.5-1,3.5c-0.1,0-0.2,0-0.3,0
			c0.1-0.8-0.1-1.6,0.3-2.3c1-1.7,0.6-3.4,0.2-5.2c-0.4-1.5-0.3-3.2-0.4-4.7c-0.1-1-0.5-1.3-1.6-1.4c-3.1-0.2-6.2-0.6-9.3-1.1
			c-0.5-0.1-1.3-0.9-1.3-1.4c-0.3-6.3-2.2-12-5.8-17.2c-1.7-2.4-2.9-5.3-4.3-8c-0.5,0.2-0.8,0.5-1.1,0.5c-3.7,0.2-7.5,0.2-11.2,0.6
			c-2,0.2-3.9,1.1-5.8,1.7c-1.1,0.4-2.3,0.8-3.4,1c-4.9,0.9-9,3.1-11.9,7.2c-0.4,0.6-0.2,1.6-0.5,2.3c-1.7,3.8-1.3,7.9-1.5,11.9
			c-0.3,8.1-0.8,16.1-0.9,24.2c-0.1,3.1,0.6,6.1,0.9,9.2C95.6,289.2,96.1,289.6,96.4,289.9C96.4,290,96.4,289.9,96.4,289.9z
			 M168.6,195c0.2,5.7,0.4,11.4,0.6,17.1c0.2,4.5,0.9,8.9,3.3,12.8c0.4,0.6,0.9,1.4,1.4,1.5c4,0.9,8,1.9,12.1,2.5
			c5.7,0.8,11.3,0,16.8-1.1c2.1-0.4,4.1-1.4,6-2.4c1-0.5,1.7-1.7,2.4-2.6c1.6-2,3.1-4,4.6-6c0.3-0.4,0.5-1,0.5-1.4
			c0-3.5-0.2-6.9-0.1-10.4c0-3,1-6,0.2-9.1c-0.2-0.6,0-1.4,0.2-2c0.5-1.4,0-2.4-1.3-2.9c-2.2-0.8-4.5-1.6-6.9-1.9
			c-3.4-0.5-6.9-0.6-10.3-0.7c-6.1-0.2-12.2-0.5-18.4-0.3c-6.4,0.2-12.8,1-19.2,1.7c-0.9,0.1-2.1,0.6-2.5,1.3
			c-0.7,1.2-0.9,2.6,0.1,4c0.3,0.5,0.4,1.2,0.5,1.9c1.6,0,3.7,0,5.9,0c-2.4,5.6-2.2,11.2-1.4,16.8c0.6,4.1,1.5,8.1,2.5,12
			c0.8,3.2,2.7,5.9,6,6.8c2.3,0.6,4.8,0.7,7.2,0.9c4.8,0.3,9.5,0.6,14.3,0.7c4.6,0.1,9.2,0.1,13.8,0c3-0.1,5.3-1.4,7-4
			c1.3-1.9,2.8-3.7,4.2-5.6c0.4-0.5,0.8-1.2,0.8-1.8c0-2.4-0.2-4.8-0.2-7.2c0-4.5,0-8.9-0.1-13.4c0-0.7-0.5-1.5-0.8-2.2
			c-0.4,3.2-0.1,6.3-0.5,9.3c-0.4,3.5,0.9,7.3-1.9,10.4c-0.8,0.8-1.2,1.9-2,2.7c-1.9,2-3.7,4.6-6.1,5.6c-3.9,1.6-8.2,2.5-12.4,2.9
			c-6.5,0.6-13,0-19.3-2.2c-1.7-0.6-3.5-1.9-4.6-3.3c-2.3-3.4-3.1-7.3-3.3-11.4c-0.2-3.7-0.6-7.3-0.7-11c-0.1-2.4,0.2-4.9,0.5-7.3
			c0.1-0.7,1-1.8,1.7-2c3.2-0.7,6.4-1.4,9.7-1.7c4.6-0.3,9.2-0.2,13.7-0.1c7,0,14,0.1,20.6,2.8c1,0.4,1.8,1,2.7,1.5
			c-0.1,0.3-0.2,0.5-0.3,0.8c-7.5-2.9-15.2-3.8-23.1-3.8C184.6,192.9,176.6,192.5,168.6,195z M237.1,201.8h0.1c0-0.6-0.1-1.2,0-1.8
			c0.4-2-0.6-3.1-2.4-3.5c-2.2-0.5-4.4-0.8-6.7-1c-2.6-0.2-4.7,1.2-6.6,2.8c-1.3,1.1-1.9,2.6-1.7,4.5c0.2,4,0.2,8,0.3,12
			c0.1,3.1,0.2,6.2,0.5,9.3c0.3,3.7,0.9,7.3,1.1,11c0.2,4.6,0.2,9.2,0,13.8c-0.2,2.6,0.5,5.3-1.6,7.9c-1.4,1.7-1.8,4.4-2.4,6.7
			c-0.2,0.8,0.2,2.1,0.8,2.7c1.3,1.2,3,2.1,4.5,3.1c0.8,0.5,1.4,1.5,2.3,1.7c2.2,0.6,4.7,0.6,6.8,1.5c3.1,1.4,5.9,0.5,8.3-1
			c2.9-1.8,5.4-4.3,7.7-6.8c1-1.1,1.8-3.2,1.5-4.7c-0.2-1.5-1.7-2.9-2.8-4.2c-0.8-1-2.2-1.7-2.6-2.8c-1-2.6-1.8-5.3-2.2-8.1
			c-0.9-5.7-1.7-11.4-2.2-17.2c-0.5-5.5-2-10.9-2-16.6C237.8,208.1,237.4,205,237.1,201.8z M219,198.9c2.5-2.9,5.2-5.1,9-5.1
			c3.5,0,7.1,0.1,9.8,2.8c0.4-0.3,0.6-0.5,0.8-0.7c1.2-0.9,2.2-2.1,1.7-3.7c-0.5-1.5-1.2-2.9-3.1-3.5c-5-1.5-9.8-1.6-14.6,0.6
			C217.7,191.5,216.6,194.4,219,198.9z"/>
		<path d="M265.6,340.9L265.6,340.9C265.6,340.9,265.6,341,265.6,340.9z"/>
		<path d="M324.4,179.5c-1.4-1.4-2.2-3-2.3-4.9c-0.3-3.9-0.6-7.9-0.7-11.8c-0.1-8.1-0.2-16.1,1-24.1c0.2-1.2,0.6-2.7-0.9-3.9
			c-0.3,5.1-0.7,9.9-0.8,14.7c-0.1,6.3,0,12.5,0,18.8c0,1.5,0.4,3.1,0.4,4.6c-0.1,2.9,0.5,5.4,2.5,7.5c0.3,0.3,0.4,0.9,0.2,1.3
			c-0.8,1.8-1.8,3.5-2.7,5.3c-0.1,0.2-0.4,0.4-0.6,0.6c-2.5,1.3-5.1,2.7-7.8,4.1c-1.6-1.2-3.5-2.7-5.4-4.3c-0.3-0.3-0.7-0.8-0.6-1.2
			c0.5-2.2,1.1-4.5,1.6-6.7c0.1-0.6,0.1-1.2,0.1-1.8c-0.3,0-0.5-0.1-0.8-0.1c-0.8,2.7-1.6,5.3-2.3,8c-1.4-0.7-2.9-1.6-4.5-2
			c-2.4-0.6-4.9-0.9-7.4-1.1c-4.5-0.3-8.9-0.9-13.4-0.6c-6.2,0.3-12.4,1.2-18.6,2c-2.5,0.3-4.9,1.2-7.4,1.2c-3.4-0.1-6.6,1-9.7,2
			c-1.2,0.4-2.2,1.2-3.3,1.8c0.1,0.2,0.2,0.4,0.3,0.6c0.9-0.2,1.9-0.5,2.8-0.7c3.2-0.8,6.3-1.7,9.5-2.3c2.8-0.5,5.7-0.7,8.5-1.1
			c5.7-0.8,11.4-1.9,17.2-2.3c8-0.5,15.8,1.4,23.5,2.8c0.4,0.1,0.8,0.5,1.1,0.9c0.8,1.2,0.5,5.1-0.7,6c-0.6,0.5-1.5,0.6-2.3,0.6
			c-1.6,0-2.5,0.4-2.3,2.3c0.2,1.4,0,2.8-0.1,4.2c-0.1,4.6,0,9.2-0.2,13.8c-0.1,2.7-0.9,5.3-1.3,7.9c-0.3,2.3-2,3.6-3.8,4.1
			c-2.4,0.7-5,0.9-7.6,1.1c-4.3,0.4-8.6,0.5-12.8,1.1c-5.6,0.8-11.1,1.9-16.9,1.6c-4-0.2-7.6-1-10.6-3.9c-1.2-1.1-2.7-1.9-4.1-2.8
			c-0.1,0.1-0.2,0.2-0.4,0.3c0.3,0.5,0.6,1.1,1,1.5c1.2,1,2.7,1.8,3.8,2.9c3.8,4,8.9,3.7,13.7,3.8c4.2,0,8.3-1.2,12.5-1.6
			c6.5-0.6,13-1.1,19.4-1.6c2.6-0.2,6.5-2.7,7-4.7c0.5-2.4,0.9-4.9,1.2-7.4c0.2-2,0.2-4,0.3-6c0.1-1.8,0.3-3.7,0.4-5.5
			c0.1-3.1,0-6.1,0-9.5c2.8,0.5,5.8-1.1,8.3,1.6c-0.5,0.6-0.9,1.1-1.5,1.8c-0.2-0.7-0.3-1.2-0.4-1.6c-0.2,0-0.4,0-0.6,0.1
			c0,4.8,0,9.6,0,14.6c-1.1-0.1-1.8-0.3-2.5-0.1c-0.6,0.1-1.1,0.5-1.7,0.8c0.4,0.4,0.8,0.9,1.2,1.2c0.5,0.4,1.2,0.5,1.8,0.8
			c0.4,0.3,0.6,0.8,1,1.2c-0.1,0.2-0.3,0.3-0.4,0.5c-1-0.1-2-0.3-3-0.4c0,0.1-0.1,0.2-0.1,0.2c1.1,0.5,2.1,1,3.2,1.4
			c0,0.1,0,0.2,0,0.4c-1,0-2,0-3,0c0,0.1,0,0.2,0,0.4c0.9,0.3,1.8,0.5,2.9,0.8c0,0.4-0.1,0.9-0.2,1.5c-0.9,0-1.7,0-2.4,0
			c0,0.1,0,0.2-0.1,0.3c0.8,0.2,1.6,0.4,2.6,0.6c0,0.5,0.1,1.2,0.1,2.1c-1.5-0.3-2.7-0.5-4-0.7c0,0.1-0.1,0.3-0.1,0.4
			c1.2,0.5,2.4,1,3.7,1.5c0,0.6,0,1.3,0,2.1c-0.8-0.2-1.6-0.4-2.4-0.7c0.1,0.5,0.2,0.8,0.4,1.2c-0.6,0-1,0-1.5,0
			c0.6,0.6,1.3,0.7,1.9,1.1c0.6,0.4,1.5,0.9,1.6,1.5c0.2,1.4,0.1,2.9,0.1,4.4c-1.7-0.3-2.4-2.3-4.1-2c0.9,0.9,1.9,1.5,2.8,2.2
			c0.5,0.4,1.2,1.2,1.2,1.8c0,2-0.2,4.1-0.4,6.7c-1.3-4-2.1-7.7-5.5-10.5c0.3,0.9,0.4,1.5,0.6,2c1.4,2.9,2.8,5.9,4.5,8.7
			c0.9,1.5,0.6,2.8,0,4.6c-1.7-2.8-3.3-5.3-4.8-7.8c-0.2,0.1-0.4,0.2-0.6,0.4c1.5,2.5,2.7,5.1,4.5,7.3c0.8,1,1.3,1.9,1.2,3.1
			s-0.4,2.4-0.5,3.6c-2.2-4.1-4.3-8.2-7.7-11.3c0,0.3,0.1,0.6,0.2,0.8c2.1,3.4,4.2,7,6.5,10.3c1.4,2,0.9,3.5-0.4,4.9
			c-2.6-4.4-5.1-8.8-7.7-13.1c-0.1,0.1-0.3,0.2-0.4,0.2c0.7,1.3,1.3,2.7,2.1,4c1.2,2.1,2.7,4.1,3.8,6.3c1.5,2.9,1.8,5.9,0.2,8.9
			c-2.1-3.5-4.1-7.1-6.1-10.6c-0.2,0.4-0.2,0.6-0.1,0.8c2.5,3.9,4.3,8.1,5.5,12.5c0.1,0.3,0.2,0.7,0.1,1c-0.5,1.8-1,3.6-1.5,5.3
			c-0.1,0.4-0.5,0.7-0.7,1c-0.6-0.9-1.1-1.5-1.9-2.5c0.1,0.8,0.1,1.3,0.3,1.6c1.2,1.2,0.6,2.4,0,3.5c-1.3,2.5-2.7,4.9-4.1,7.3
			c-0.6,1.1-1.1,2.2-1.9,3.7c-0.8-2.3-1.5-4.2-2.1-6c-0.1,0.1-0.1,0.2-0.2,0.3c-1.6-2.2-3.1-4.4-4.7-6.7c-0.2,0.3-0.2,0.5-0.1,0.7
			c2.4,3.6,4.7,7.3,6.2,11.4c0.2,0.5,0.4,1.3,0.2,1.7c-2,3.7-4.1,7.3-6.2,10.9l0.1-0.1c-0.6,1.2-1.1,2.4-1.7,3.5
			c-1.3-3.5-2.6-6.8-4-10.6c0,0.7-0.1,0.9,0,1.1c0.8,2.2,1.5,4.3,2.3,6.5c0.6,1.6,1.4,3.2,0.4,5.1c-1.1,1.9-1.9,3.9-2.8,5.9
			c-0.4,0.8-0.8,1.5-1.4,2.6c-1-1.8-1.8-3.3-2.7-4.8c-0.1,0.1-0.3,0.2-0.4,0.2c0.7,1.3,1.5,2.5,2.1,3.8c0.3,0.6,0.3,1.6,0,2.2
			c-1.4,2.7-2.9,5.3-4.4,8c-0.8,1.5-1.7,3-2.6,4.7c-0.9-1.1-1.7-2-2.4-2.9c-0.2,0.1-0.3,0.2-0.5,0.3c0.7,1.2,1.8,2.4,2,3.7
			c0.2,1.5-0.9,2.8-2.1,3.6c-1.2-1.5-2.3-2.8-3.4-4.2c-0.2,0.1-0.4,0.3-0.5,0.4c0.4,0.5,0.8,1.1,1.2,1.7c-0.3,0.3-0.5,0.5-0.5,0.5
			c0.4,1.2,0.8,2.1,1.1,2.9c0.1-0.1,0.2-0.4,0.6-1.1c0.9,2.7,1.7,5,2.4,7.1l0.1-0.1c0.1-0.1,0.3,0,0.3,0c0.5,3.9-0.6,7.5-2.5,10.9
			c0.9-0.6,1.5-1.4,2.1-2.2c2.1-3,1-6.9,2.9-10.1c1.4-2.3,2.2-4.9,3.2-7.3v0.1c0.2-2.2,0.3-4.4,0.5-6.7c-0.2,0-0.4-0.1-0.6-0.1
			c-1.6,3.4,0,7.5-2.5,11c-0.1-1.4,0-2.5-0.3-3.6c-0.6-1.7-0.1-3.1,0.7-4.5c1.1-1.9,2.1-3.7,3.1-5.6c2.6-4.9,5.2-9.9,7.8-14.8
			c3.5-6.4,7.1-12.8,10.6-19.2c2-3.7,3.7-7.5,5.9-11c1.3-2.1,2.2-4.3,2.8-6.6c0.2-0.8,0.8-1.5,1.3-2.3c-1.2-2.2,1.1-4.1,0.9-6.4
			c0.7,0.3,1.3,0.6,2.2,1c-0.9-1.5-2-2.7-0.9-4.3c0.7-1,1.2-2.2,1.8-3.2c1.4,0,2.9-0.1,4.4,0c3.4,0.3,5.4-2.6,6-5.3
			c0.7-3.1,1.2-6.3,1.8-9.4c0.3-1.5,0.7-3.1,1-4.6c-0.2-0.1-0.3-0.1-0.5-0.2c-0.6,1.6-1.3,3.1-1.7,4.7c-0.6,2.2-0.9,4.5-1.3,6.8
			c-0.2,1-0.1,1.1,0.2,2.3c-0.9,2.2-2.7,3-4.5,3.6c-0.9,0.3-2,0.1-3,0.4c-4,1-2.5-4.3-2.4-5.1c0.2-3.9,0.4-7.8,0.6-11.6
			c0-0.5,0.5-1.1,0.6-1.3c-1.1-6.2,0.2-12.2,0.1-18.2c-0.1-6.2,0.4-12.4,0.7-18.7c0.4-0.3,0.8-0.8,1.4-1c2.1-0.8,2.9-3.5,5.5-3.6
			c0.2,0,0.6-0.5,0.5-0.6c-0.6-1.8,1-1.9,2-2.5c1.5-0.9,3-1.8,4.5-2.7c2.6-1.6,3.1-4.4,4-6.9C325.2,181.2,324.9,180,324.4,179.5z
			 M267.5,339.5c-1.9-1.2-1.8-3.3-2.6-4.9c1-0.9,1.8-1.6,2.8-2.5C267.9,334.7,268.8,337.1,267.5,339.5z M305.8,190.1
			c0.6,1.3,1.2,2.6,1.8,3.9C305.6,193.2,305.3,192.7,305.8,190.1z M306.9,188.8c1.9,1.6,3.5,2.9,5.3,4.4
			C307.9,192.8,307.2,192.3,306.9,188.8z"/>
		<path d="M369.7,272.3c0-3.2,0.1-6.4,0-9.5c-0.1-4.7-0.5-9.5-0.6-14.2c-0.2-5.2-0.4-10.3-0.3-15.5c0-1.2,1.2-2.4,1.9-3.5
			c0.5-0.8,1.2-1.4,1.7-2.2c1.9-3.2,5-3.1,7.6-1.8c1.6,0.8,1.9,2.3,1.9,4c-0.1,6.4-0.3,12.8-0.4,19.2c-0.1,9.8-0.3,19.6-0.3,29.4
			c0,1.9,0.4,3.8,0.7,5.8c-1.3,0.5-1.7-0.2-1.8-1.4c-0.1-4.9-0.2-9.9-0.2-14.8c0.1-4.7,0.4-9.4,0.5-14.2c0-4.4-0.3-8.7-0.3-13.1
			c0-3.3,0.3-6.7,0.4-10c0.1-1.5-0.1-3-1.8-3.7c-2.1-0.8-3.9-0.3-5.1,1.2c-0.9,1.2-1.9,2.3-2.8,3.4c-1.4,1.7-0.8,3.7-0.8,5.5
			c0.1,3.5,0.3,7.1,0.4,10.6c0.1,4.7,0,9.3,0,14c0,8.4,0,16.9,0,25.2c-0.5-0.3-1.2-0.6-1.7-0.9c0-2.4,0.2-4.8-0.1-7.1
			c-0.5-3.9-1.2-7.8-2-11.6c-0.5-2.4-1.3-4.8-1.8-7.2c-0.5-2.3-0.8-4.6-1.2-6.8c-0.6-3.9-1.1-7.9-2-11.8c-0.9-4-3.4-7.4-5.9-10.6
			c-1.2-1.6-3.3-2.6-5.1-3.5c-5.7-2.8-11.7-4.9-18.1-4.9c-2.7,0-5.3,0.3-7.9,0.9c-0.8,0.2-1.4,1.7-1.8,2.7c-1,2.5-1.9,5.1-2.8,7.7
			c-0.2,0.6-0.4,1.1-0.6,1.6c-0.2,0-0.4-0.1-0.6-0.1c0.4-2,0.9-4.1,1.3-6.1c0-0.2,0.2-0.3,0.3-0.4c2.4-5.9,5.2-11.7,7-17.8
			c1.2-3.9,0.9-8.3,1.4-12.5c0-0.4,0.3-0.8,0.7-1.2c1.4,4.3,0.5,8.4-0.5,12.5c-1,4-2.2,8-3.4,12.1c1.3-0.2,2.8-0.6,4.3-0.6
			c3.8-0.1,7.6,0,11.2,1.4c2.9,1.1,6,1.8,8.9,3.1c4.3,2,8,4.8,9.9,9.4c0.1,0.3,0.2,0.6,0.4,0.8c2.9,3.1,3.8,7,4.6,10.9
			c1.3,6.6,2.2,13.2,3.2,19.8c0.3,2.1,0.7,4.3,1,6.4C369.4,272.4,369.6,272.3,369.7,272.3z"/>
		<path d="M400.2,277.4c0.2,0.5,0.6,1.1,0.5,1.5c-0.4,1.9-1,3.7-1.6,5.6c-0.1,0.4-0.1,0.8-0.2,1.4c1.6-1.3,3.1-2.4,4.6-3.5
			c2.1-1.6,6.1-0.8,6.5,1.4c0.2,1.7,0,3.5-0.4,5.1c-0.4,1.7-1.2,3.2-1.8,4.8c-0.1,0.3-0.1,0.6-0.1,0.9c2.1-0.1,3.4,1.9,2.8,3.7
			c-1.5,4.3-2.9,8.7-4.1,13.1c-1.1,3.8-1.7,7.8-2.8,11.6c-1,3.5-2.4,7-3.5,10.4c-0.1,0.3-0.3,0.7-0.2,1c0.1,4.2,0.3,8.3,0.5,12.6
			c1.1,0.2,2,0.4,2.9,0.4c3.8,0,6.3,2.4,8.8,4.8c1,1,2.1,1.9,3,3c0.4,0.4,0.8,1.5,0.6,1.7c-1.6,1.5-0.8,3.3-0.7,4.9
			c0.3,4.6,0.7,9.2,1,13.9c0.1,1.7,0.3,3.4,0.3,5.1c0,0.6-0.5,1.2-0.7,1.9c-0.2,0-0.4,0-0.6,0c-0.1-0.5-0.2-1.1-0.2-1.6
			c0.4-7.3,0.4-14.6-1.4-21.9c-6.8,5.3-14.2,8.8-22.7,9.7c-1.1,0.1-2.1,0.2-3.2,0.2c-1-0.1-2.1-0.2-2-1.3c5-0.9,9.8-1.7,14.5-2.6
			c-0.2-1.1-0.4-1.7-0.4-2.3c0-3.7,0.1-7.4,0.1-11.1c-0.1-4.8-0.4-9.7-0.6-14.5c-0.1-1.5-0.2-3.1-0.2-4.6c0-0.7,0.4-1.3,0.7-2
			c0.3-0.6,0.8-1.1,0.9-1.6c1.3-4.8,2.4-9.5,3.7-14.3c0.6-2.1,1.5-4.1,2.1-6.2c0.8-2.7,1.4-5.5,2.2-8.3c0.3-1.1,0.8-2.1,1.3-3.3
			c-0.7-0.5-1.4-1-2.1-1.4c-1.7,5.1-3.3,10.2-5,15.3c-1,3-3.2,3.8-5.9,3.2c-2.6-0.6-3.1-1.5-2.5-4.7c0.7,1.6,1.1,3.2,3,3.5
			c1.4,0.2,3.2-0.4,3.7-1.7c1.1-2.7,2.2-5.4,3-8.1c1.5-4.8,2.9-9.6,4.3-14.4c0.2-0.6,0.3-1.3,0.4-1.9c0.2-3.1-1.4-3.6-4-2.7
			c-1.8,0.6-3.1,2.4-4.7,3.4c-2.7,1.7-2.3,4.7-3.1,7.1c-0.6,1.7-1.2,3.5-1.7,5.3c-0.9,3.1-1.9,6.3-2.6,9.5c-0.5,2.2-1.1,3.8-3.6,4.2
			c-3.3,0.5-6.5,1.1-9.3-1.3c-0.4-0.4-0.5-1.1-0.5-1.7c2,1.5,4.1,2.2,6.5,1.7c1.2-0.2,2.4,0,3.5-0.5c0.8-0.3,1.6-1.2,1.9-2
			c1.4-4.2,2.6-8.4,3.8-12.6c0.7-2.3,1-4.7,1.7-7.1c0.8-2.9,1.7-5.7,2.6-8.5C399.4,279.9,399.8,278.6,400.2,277.4
			C400.2,277.3,400.2,277.4,400.2,277.4z M400.5,348.7c0,5.1,0,10.4,0,15.6c0.2,0.1,0.3,0.3,0.5,0.4c4.3-2.7,8.6-5.3,12.9-8
			C410.3,352.1,406.8,348,400.5,348.7z"/>
		<path d="M352.8,291.1c-1-1.7-2.2-3.4-2.8-5.2c-2.9-8.1-5.7-16.2-8.6-24.2c-2-5.4-3.3-10.9-3.4-16.7c-0.1-3.7,1-6.9,3.9-9.3
			c2-1.6,4.3-1.3,5.4,1.1c0.8,1.8,1.5,3.6,2.2,5.4c1.7,4,3.6,7.9,5.2,11.9c1.8,4.4,3.3,8.9,5.1,13.3c1.5,3.7,3.3,7.4,4.9,11.1
			c0.9,2.2,1.8,4.4,2.7,6.5c0.5,1.1,1,2.2,1.6,3.5c-0.5,0.6-1.1,1-1.7-0.2c-0.7-1.7-1.3-3.4-2-5.1c-0.2-0.5-0.2-1.1-0.6-1.5
			c-3.5-4.4-4.9-9.8-7-15c-2.3-5.8-4.8-11.5-7.2-17.3c-1.4-3.5-2.7-7.1-4.1-10.7c-0.2-0.6-0.5-1.1-0.8-1.6c-1-1.2-2-1.2-3.1,0
			c-1.8,1.9-2.7,4.2-2.7,6.9c-0.1,6,0.9,11.7,3,17.3c1.8,4.8,3,9.8,4.7,14.6c1.4,4,3.3,7.9,4.8,11.9c0.4,1,0.5,2.1,0.7,3.2
			C353.2,291,353,291.1,352.8,291.1z"/>
		<path d="M159.5,272.6c-2.1,3-2.1,5-0.3,7.8c0.5-0.6,1-1.2,1.5-1.8c-0.1,1.9-0.9,3.6,0.7,5.2c0.2-1.5,0.3-2.8,0.6-4.1
			c0.1-0.3,0.3-0.6,0.7-1.4c-0.2,2.3-0.3,4-0.4,5.8c0,0.6-0.1,1.4,0.2,1.8c2.2,3.3,4.4,6.5,6.6,9.7c0.2,0,0.4-0.1,0.5-0.1
			c0.5-1.7,1.1-3.5,1.6-5.2c0.2,0.1,0.4,0.1,0.5,0.2c-0.4,1.3-0.8,2.6-1.3,3.9c-0.4,1.2-0.3,2.2,0.7,3.2
			c5.3,5.5,10.7,10.9,15.8,16.6c3.3,3.7,6,7.9,9.1,11.8c1.7,2.1,3.6,3.9,5.5,5.8c0.5-1.6,0.9-3,1.3-4.3c0.1,0,0.3,0.1,0.4,0.1
			c0,1.8,0,3.7,0,5.5c0.9-2,0.6-4.6,3.8-5.5c-1.9,2.9-4.1,5.3-0.8,8.5c-0.7-0.1-1-0.1-1.6-0.2c0.5,1.1,1,2.1,1.4,3
			c0.4-5.2,0.7-10.3,5.3-13.6c0.2,0.1,0.5,0.2,0.7,0.4c-0.4,0.6-0.9,1.2-1.3,1.8c-2.3,3.2-3.6,6.8-2.7,10.8c0.4,1.6,0.2,3.1,0.3,4.6
			c0.1,2.8,1.4,5,2.6,7.3c0.3,0.5,1.1,0.8,1.7,1.2c-0.7,1.3-1,1.3-2.1,0.1c-2.3-2.6-3.4-5.6-3.5-9c0-0.8-0.2-1.5-0.3-2.4
			c-2.1,0.7-2.8-0.4-3.3-2.1c-0.6-2.3-0.9-5-3.8-6.1c0,0.6,0.1,1.2,0.1,1.9c-0.2-0.1-0.3-0.1-0.3-0.1c-2-5.5-6.3-9.4-9.6-13.9
			c-2.4-3.3-5.2-6.2-8-9.1c-2.5-2.6-5.3-4.9-7.7-7.6c-3.6-4-7.7-7.6-10.3-12.5c-1.7-3.1-3.3-6.3-5.7-8.8c-2.2-2.3-1.3-4.8-2-7.2
			c0.2-0.1,0.3-0.1,0.5-0.2c0.2,0.4,0.3,0.8,0.5,1.2C158.3,274.8,157.2,272.4,159.5,272.6L159.5,272.6z"/>
		<path d="M88.2,313.9c-0.5,4.8-5.3,7.3-9.8,5.6c-1.5-0.6-2.7-1.6-4.1-2.4c-0.4-0.2-0.8-0.2-1.6-0.4c0.9,1.2,0.9,1.8-0.3,2.2
			c-3.2,1-6.7-0.9-7.7-4.1c-0.6-2-1.6-3.8-2.2-5.7c-1.2-3.8-2.3-7.7-3.5-11.5c-0.3-0.9-0.7-1.8-1.1-2.9c2.5-2.9,5.3-3,9.5,0
			c-0.1-0.5-0.2-0.8-0.3-1.1c-0.5-1.9-1.1-3.8-1.4-5.7c-0.3-2.1,1.5-3.4,3.7-2.8c1.3,0.4,2.6,0.7,3.6,1.5c3.2,2.4,6.6,4.4,8.2,8.5
			c2.1,5.5,4.8,10.8,7.2,16.2c0.3,0.7,0.4,1.5,0.6,2.3c-0.2,0-0.4,0.1-0.6,0.1c-0.9-1.8-1.8-3.6-2.6-5.5c-2.2-4.7-4.1-9.6-6.5-14.2
			c-0.9-1.7-2.6-3-4.2-4.2c-1.5-1.2-3.3-2.1-5-2.9c-0.8-0.4-2.3-0.4-2.8,0.1s-0.5,1.9-0.2,2.8c1.2,4.5,2.6,9,3.9,13.5
			c0.9,3.1,1.6,6.3,2.6,9.5c1.3,4.1,3.5,5.7,7.7,6c1.8,0.1,4.6-1.6,5.6-3.4C87.1,314.6,87.7,314.3,88.2,313.9z M73.4,314.8
			c-0.4-0.8-0.8-1.5-1-2.2c-1-3.5-1.9-6.9-2.8-10.4c-0.7-2.6-1.1-5.4-3.5-7.2c-1.4-1.1-2.6-1.7-4.4-1.1c-2.1,0.8-1.5,2.3-1.2,3.8
			c1.1,5.6,2.6,11.1,5.2,16.2c1.2,2.5,3.1,3.4,5.2,3.2C71.9,316.2,72.6,315.5,73.4,314.8z"/>
		<path d="M55.7,362.9c0.3,0,0.7-0.1,0.9,0.1c2.7,1.8,5.3,3.8,8.1,5.6c3.7,2.4,7.7,3.8,12.3,3.6c3-0.1,5.9,0.4,8.9,0.4
			c3.1,0,6.1-0.4,9.2-0.5c1.6-0.1,1.7-1.3,1.8-2.2c0.4-4.6,0.6-9.2,1-13.8c0.2-2.4,0.9-4.8,1.4-7.1c0.2-1.1,0.4-2.3,1-3.2
			c0.9-1.4,2-2.6,3-3.9c3.3-4.2,6.5-8.5,9.8-12.7c1.8-2.3,3.9-4.4,5.9-6.6c1.2-1.4,2.4-2.9,3.9-4.1c0,0.3,0.1,0.6,0,0.7
			c-6.6,8.3-13.4,16.6-19.9,25c-2.5,3.3-3.7,7.3-3.8,11.5c0,1.3,0.5,1.7,1.6,1.8c5.4,0.7,8.9,4.2,11.7,8.5c0.1,0.1,0,0.3,0,0.7
			c-0.4-0.1-0.8-0.2-1.1-0.3c-0.1-0.1-0.1-0.2-0.2-0.2c-2.9-4.2-6.7-7-11.9-7.6c-0.5,4.3-0.9,8.6-1.4,13c1.2-0.1,2.4-0.2,3.5-0.3
			l0,0c-0.7,0.6-1.3,1.7-2.1,1.7c-4.5,0.5-8.9,0.9-13.4,1.1c-3,0.2-6,0-9.1,0c-4.7,0-9-1.3-12.8-4.3c-2-1.6-4.3-2.8-6.3-4.4
			C57,364.7,56.5,363.7,55.7,362.9L55.7,362.9z"/>
		<path d="M96.4,289.9C96.4,289.9,96.4,290,96.4,289.9c0-1.5-0.1-3.1,0.1-4.7c0.8-5.9,1.8-11.8,2.5-17.7c0.7-5.2,0.9-10.5,1.7-15.6
			c0.4-2.5,1.4-4.9,2.6-7.1c1.3-2.4,3.8-3.3,6.3-3.9c4.1-0.9,4.7-0.4,4.5,3.9c-0.4,8.8-1.1,17.6-1.7,26.4c-0.2,3.8-0.5,7.5-0.8,11.3
			c-0.4,5-0.8,10-1.2,15c0,0.2-0.2,0.3-0.3,0.5c-1.3-0.4-1.5-1.5-1.4-2.6c0.3-3.2,0.7-6.3,1-9.5c0.5-5.4,1-10.8,1.5-16.2
			c0.3-3.6,0.7-7.2,1-10.9c0.1-1.7,0-3.3,0.1-5c0.2-3.8,0.4-7.6,0.7-11.2c-4.1-1.5-9.2,2.8-9.7,5.4c-0.8,4.3-1.4,8.5-2,12.8
			c-0.5,3.5-0.9,6.9-1.4,10.4c-0.4,3.5-0.8,7-1.3,10.4c-0.2,1.6-0.9,3.1-1.2,4.6c-0.3,1.4-0.2,2.8-0.7,4.5
			C96.6,290.4,96.5,290.2,96.4,289.9z"/>
		<path d="M357.5,323.1c0,3.3,2.8,4.9,4.6,7c0.8,0.9,1.7,1.7,2.7,2.4c1.5,1,1.5,2.7,1.8,4.2c0.8,4.6,1.3,9.2,2.1,13.8
			c0.4,2.4,0.5,4.9,2,7.1c0.8,1.3,0.9,3.2,1.4,4.7c0.2,0.5,0.7,1,1.2,1.2c2.7,0.8,5.5,1.5,8.2,2.3c1.1,0.3,2,0.9,3.4,1.5
			c-5,2.1-29.2-8.8-28.8-12.3c5,2.5,10,5.1,14.5,7.4c-1-4.2-2.2-8.9-3.2-13.6c-0.8-4.1-1.4-8.3-1.9-12.5c-0.2-1.6-1-2.6-2.2-3.4
			c-2.6-1.9-4.7-4.1-6.4-6.8c-0.6-1.1-1.5-1.5-2.8-1.8c-3-0.7-6.2-1.5-8.9-3c-3.8-2.1-4.1-4.5-2.4-8.4c2.7-5.8,5.6-11.5,9.1-16.9
			c0.3-0.4,0.8-0.7,1.2-1c-0.1,0.6,0,1.2-0.3,1.6c-1.5,2.5-3.4,4.9-4.7,7.6c-1.9,3.7-3.4,7.7-4.9,11.6c-0.2,0.7,0.4,1.9,1,2.6
			c1.5,1.7,3.2,3.1,5.8,3.1c1,0,1.9,1,2.9,1.2C354.3,323.1,355.8,323,357.5,323.1z"/>
		<path d="M163.7,99c1.6-3.6,2.8-7.2,4.8-10.3c1.6-2.5,4.2-4.4,6.5-6.4c2.7-2.2,5.5-4.3,8.4-6.2c2.5-1.6,5.2-3,7.8-4.5
			c0.1,0.2,0.2,0.4,0.3,0.6c-1.1,0.7-2.2,1.4-3.4,2c-6.5,3.3-11.6,8.3-17,13c-3.2,2.7-4.1,6.9-5.4,10.7c-0.3,0.8-0.4,1.7-0.6,2.9
			c-2.5-1.1-5.5-1.7-8.8-0.4c4.2,0.6,8.4,0.5,11.8,3.7c-2.5-0.8-4.5-1.5-6.6-2.3c-4.1-1.5-7.9,0-11.5,1.6c-3.9,1.8-7.6,4-10.6,7.1
			c-0.6,0.6-1.2,1.1-1.8,1.7c-4,3.9-7.8,8-10.3,13.1c-1.4,2.9-2.1,5.9-1.9,9c0.2,4.1,0.8,8.1,1,12.3c-0.3-0.8-0.7-1.7-0.9-2.5
			c-1-4.7-1.9-9.3-1-14.1c1-4.9,3.4-8.9,6.7-12.6c1.7-1.9,3.3-4.1,5.2-5.8c2.7-2.4,5.5-4.8,8.6-6.7c3.1-2,6.5-3.3,9.8-5
			c2.6-1.3,5.2-1.6,8-0.9C163.1,99,163.6,99,163.7,99z"/>
		<path d="M250.7,180.3c-0.9-0.8-1.9-1.7-2.7-2.6c-1.6-1.6-1.7-5.5,0-7.4c1.1-1.2,2.6-2.3,4.1-2.8c2.5-0.9,5.2-1.2,7.8-1.9
			c4.2-1.1,8.5-1.7,12.7-0.3c3.7,1.3,7,3.5,9.4,6.8c1,1.4,0.1,2-0.8,2.7c-1,0.9-1.8,0.9-2.8-0.1c-3-3.1-6.8-4.9-10.9-4.9
			c-3.9,0-7.8,1.4-10.8,4.3c-2,1.9-4.2,3.6-6.4,5.4C250.4,179.9,250.6,180.1,250.7,180.3z M251,178.3c0.4-0.4,0.6-0.8,1-1.1
			c1.8-1.8,3.3-4.2,5.4-5.4c2.9-1.7,6.4-2.5,9.6-3.7c0.3-0.1,0.7,0,1.1,0.1c4.3,0.8,8.2,2.4,11.4,5.7c0.5-0.3,0.9-0.6,1.3-0.8
			c-0.2-0.4-0.3-0.8-0.6-1c-3.9-4-8.5-6.6-14.3-5.8c-4.5,0.6-9,1.7-13.6,2.6c-2.2,0.4-4.5,2.8-4.6,5.2
			C247.6,176.2,249.2,177.4,251,178.3z"/>
		<path d="M210.2,177.7c0.2,1.7-0.1,3.2-1.8,4.1c-0.7,0.4-1.1,1.1-1.6,1.7c-0.6-0.6-1.2-1.3-1.9-1.9c-4.2-3.7-8.9-6.4-14.4-7.5
			c-2.3-0.4-4.6-0.2-6.8,1c-1,0.6-2.2,0.8-3.3,1.4c-0.8,0.4-1.6,0.9-2.2,1.5c-0.7,0.8-1.2,1.2-2.4,0.5c-1.1-0.7-1-1.4-1-2.5
			c0-3.5,3.7-3.2,5.1-5.2c0.5-0.7,1.5-0.9,2.2-1.5c2.7-2.5,6-2.3,9.3-2.3c0.6,0,1.2,0.2,1.8,0.2c2.7,0,5.2,0.3,7.6,1.5
			c1,0.6,2.4,0.7,3.6,0.7c1.7,0,3,0.7,3.7,2c1,1.9,1.7,4,2.5,6C210.5,177.6,210.3,177.7,210.2,177.7z M206.5,181.8
			c0.3-0.4,0.5-0.9,0.8-1.1c1.4-1,2.2-2.1,1.7-3.9c-0.4-1.2-0.8-2.5-1.2-3.7c-0.5-1.6-1.8-2.5-3.3-2c-2,0.5-3.3-0.5-4.8-1.2
			c-1-0.5-2.1-0.8-3.2-1c-1.3-0.2-2.7-0.2-4.1-0.3c-2.9-0.3-5.7,0-8.2,1.6c-2.6,1.6-5.1,3.4-7.6,5.2c-0.5,0.4-0.6,1.2-0.9,1.8
			c0.6-0.1,1.3-0.1,1.8-0.3c3.4-1.9,6.6-4.1,10.7-4.2c2.9-0.1,5.6,0.8,8.3,2c3.7,1.6,7.4,3.1,9.6,6.8
			C206.2,181.7,206.4,181.8,206.5,181.8z"/>
		<path d="M284.8,72c-1.6-0.7-3.1-1.5-4.7-2c-5.3-1.7-10.6-3.2-15.9-4.8c-1.4-0.4-3-0.4-4.4-0.8c-5.3-1.6-10.7-1.2-16-1
			c-8.1,0.3-16.3,0.7-24.3,1.6c-4.1,0.4-8.1,1.9-12.2,2.9c-2,0.5-4.1,0.9-6.2,1.3c-0.1-0.2-0.1-0.4-0.2-0.5c0.3-0.2,0.6-0.6,0.9-0.7
			c5.5-1.4,10.9-3,16.4-4.2c3.1-0.7,6.4-0.5,9.6-0.8c4-0.3,7.9-0.8,11.9-1c6.3-0.2,12.7-0.5,19,0.8c6,1.2,12,2.3,17.6,4.7
			c2.9,1.2,5.8,2.6,8.7,4C285,71.5,284.9,71.7,284.8,72z"/>
		<path d="M236.5,304.9c-3.7,0-7.4,0-11.1,0c-1.2,0-2.4-0.2-3.5-0.4c-3.4-0.5-3.7-4.2-2.1-5.9c1.1-1.2,2.5-2.4,4-3.3
			c5.6-3.3,11.8-3.9,18.1-2.6c3.6,0.8,6.6,2.5,9.3,5c1,0.9,1,3.2-0.2,4.1c-1,0.8-2.1,1.6-3.2,1.8c-3.7,0.7-7.4,1.2-11.1,1.8
			C236.5,305.3,236.5,305.1,236.5,304.9z M236.2,293.2c-2.1,0.4-4.4,0.5-6.4,1.3c-2.8,1.1-5.5,2.6-8,4.4c-1.7,1.1-1,3.6,0.9,4.2
			c0.8,0.3,1.7,0.5,2.6,0.5c4.5,0.1,9.1,0.2,13.6,0c2.8-0.1,5.6-0.5,8.3-0.9c0.7-0.1,1.5-0.6,2.1-1c1.7-1.2,1.7-2.7,0-3.8
			C245.3,295.1,241.1,293.4,236.2,293.2z"/>
		<path d="M241.6,342.4c1,2,2.1,4,2.9,6c1,2.7,0.7,5.4-0.3,8.1c-0.3,0.9-0.8,2-2.3,1.4c1-0.7,2.8-1.1,1.6-2.4c0.3-1.2,0.6-2.1,0.8-3
			c0.4-2.5-1.6-3.8-2.8-5.4c-1.2-1.6-1.7-3.3-1.1-5.3c0.1-0.2-0.1-0.4-0.1-0.7c-1.8,0.2-2.3,0.8-2.2,2.4c0.2,1.6,0.2,3.2,0.2,4.8
			c0,0.9,0.4,1.2,1.6,1.5c0.3,0.1,0.5,0.4,0.7,0.7c0.6,1.2,1.3,2.3,1.6,3.5c0.1,0.5-0.4,1.4-0.9,1.8c-1.1,0.8-2.3,1.5-3.5,2.2
			c-0.1-0.2-0.2-0.3-0.3-0.5c0.6-0.3,1.3-0.5,1.9-0.8c1.9-1,2.1-2.1,0.8-3.8c-0.3-0.4-0.5-1-0.8-1.4c-0.3-0.4-0.7-0.8-1.1-1.2
			c-0.7,1.6-1.3,3.3-2,4.9c-0.2-0.1-0.4-0.1-0.6-0.2c0-0.4-0.1-0.8,0.1-1.1c1.4-2.2,1.2-4.4,0.8-7c-0.5-3.1-2-5.7-2.7-8.6
			c-1.2,2.5-1.6,5.6-0.1,6.5c-1.3,2,0.2,4.1-0.5,6.4c0.9-0.5,1.5-0.8,2-1.1c-0.9,1.5-1.8,2.9-2.7,4.3c0.2-0.6-0.1-1.2-1.4-0.6
			c1.5-1.4,1.6-2.7,1.4-4.3c-0.2-1.6,0.4-3.5-0.1-4.9c-0.7-1.8-0.4-3.3,0-4.8c0.6-2.2,1.2-4.4,2.2-6.4c0.8-1.7,2.4-2.6,5-2.4
			c-3.3,1.3-4.8,3.4-4.9,6.6c-0.1,1.9,0.6,3.2,1.9,4.4c0.7-0.4,1.3-0.8,2-1.2c1.6-0.7,2.2-2,2-3.6c-0.3-2.5,0-4.8,2.7-6.1
			c-0.6,1-1.6,1.9-1.7,2.9C241.6,337,241.7,339.8,241.6,342.4c-0.2-0.2-0.4-0.5-0.7-0.8c-0.3,2.9,0.6,5.2,2.8,6.6
			c-0.5-1.4-1.1-2.7-1.7-4C241.7,343.7,241.7,343.1,241.6,342.4z"/>
		<path d="M60.2,317.5c4.2,11.7,10.3,24.2,12.4,25.2c-1.5,4.8-1.7,9.4-0.2,10.4c-3.1,1.2-2.1,4.1-2.6,6.3c-0.6,2.9-0.8,5.9-1.2,8.8
			c0,0.3-0.5,0.6-0.8,0.9c-0.2-0.5-0.7-1.1-0.7-1.6c0.4-2.6,1-5.1,1.4-7.7c0.3-1.9,0.6-3.8,0.9-5.6c-1.5-0.3-3-0.6-5-1
			c-2.2,2.1-4.9,4.7-7.7,7.2c-0.4,0.4-1,0.5-1.8,0.5c0.3-0.4,0.6-0.9,1-1.3c1.5-1.6,2.9-3.3,4.6-4.7c3.2-2.7,3.3-2.8,7.2-2.6
			c1.7,0.1,2.5-0.4,2.7-2.1c0.2-1.9,0.6-3.8,0.7-5.7c0-0.7-0.5-1.5-0.9-2.2c-2.4-4.9-4.9-9.8-7.2-14.7c-1.2-2.5-2.4-5.1-3.5-7.8
			C59.3,319,58.9,318,60.2,317.5z"/>
		<path d="M400.2,277.3c-0.4-0.3-0.9-0.5-1.2-0.9c-1.7-2.3-4.8-3.1-7.3-1.7c-3.3,1.9-6.2,4.3-7.5,8.2c-1.2,3.5-2.2,7-2.8,10.7
			c-0.5,3.6-1.8,7.1-2.8,10.7c-0.3,1.2-0.6,2.3-1.2,3.5c-0.1-0.5-0.2-1.1-0.4-2c-3.4,1.8-6.7,3.5-10.3,5.4c0.5-0.7,0.8-1.3,1.3-1.8
			c2.4-2.2,5.3-3.4,8.3-4.4c0.6-0.2,1.3-1,1.5-1.6c0.5-1.7,0.8-3.6,1.2-5.4c1.3-5.2,2.5-10.4,4-15.6c1.5-5.3,5.3-8.6,10.4-10.4
			C396.8,270.9,400.7,274.1,400.2,277.3C400.2,277.4,400.2,277.3,400.2,277.3z"/>
		<path d="M220,97.7c1.8,1.9,3.6,3.8,5.6,5.6c4.6,4.2,9.1,8.5,13.9,12.6c2.8,2.4,6.2,3.6,9.8,4.5c3.6,0.9,7.3,2,11,2.4
			c4.5,0.5,9.1,0.3,13.6,0.4c1.8,0,3.5-0.2,5.4,0c-1.6,0.4-3.2,1-4.8,1c-5.9-0.1-11.8-0.1-17.7-0.7c-6-0.6-11.8-2.5-16.9-5.8
			c-3.3-2.2-6.2-4.8-9.1-7.5c-3.2-3-6.1-6.2-9.1-9.3c-0.8-0.9-1.3-2-2-3C219.8,97.8,219.9,97.7,220,97.7z"/>
		<path d="M289.6,74c1.9,1,3.8,1.9,5.6,2.9c4.6,2.4,7.6,6.4,10.3,10.7c2.8,4.5,5.7,9.1,8.3,13.7c3,5.4,6.1,10.9,7,17.1
			c0.7,4.6,0.9,9.3,1.3,13.9c-0.2,0-0.4,0.1-0.6,0.1c-0.2-1.3-0.6-2.6-0.6-4c0-5.5-0.6-10.9-2.5-15.9c-1.4-3.7-3.3-7.2-5.3-10.7
			c-2.7-4.7-5.6-9.2-8.5-13.7c-2.9-4.5-6.1-8.6-11.2-10.9c-1.4-0.6-2.6-1.9-3.9-2.9C289.4,74.2,289.5,74.1,289.6,74z"/>
		<path d="M221.3,353.5c-0.2-1.3-0.4-2.5-0.6-3.6c0.1-0.1,0.3-0.1,0.4-0.2c0.7,2.5,1.9,4.5,4.6,5.3c-0.5-2.2-1.6-3.8-3.3-5.2
			c-1-0.9-1.4-2.7-1.8-4.1c-0.4-1.4-0.6-2.7-2.3-3.5c-0.8-0.3-1.3-1.6-1.6-2.5c-1.1-3.9,0.3-7.5,1.7-11.1c0.1-0.2,0.3-0.4,0.4-0.6
			c0.1-0.1,0.3-0.2,0.6-0.3c-1.4,4.9-4.4,9.7-0.2,14.9c0.5-1.2,0.9-2,1.2-2.8c-0.3,4,0.8,7.5,3.5,10.4c-0.1-1.1-0.1-2.2-0.2-3.3
			c0.1,0,0.2,0,0.4-0.1c0.2,0.9,0.4,1.8,0.7,2.7c0.2,0.9,0.5,1.7,0.7,2.6c0.6,1.9,1.4,3.5,3.9,2.6c-1.6,1.3-3.4,1.2-5.1,0.9
			c-1.7-0.3-3.4-0.9-5-1.6c-0.6-0.2-1.2-0.8-1.5-1.4c-2.1-4-4.2-7.9-3.6-12.7c0.3-2.2,0.1-4.5,0.2-6.7c0-0.7,0.4-1.3,1-1.9
			c0,5.4,0,10.8,0,16.6c0.7-0.5,1-0.6,1.3-0.8c0.1,0.4,0.1,0.8,0.2,1.4c0.4-0.7,0.8-1.2,1-1.5c0,1.2-0.3,2.6,0.1,3.8
			C218.7,352.1,219.4,353.5,221.3,353.5z"/>
		<path d="M171.1,118.5c-5.2,7.2-6.9,15.6-8.1,24.2c-0.9,6.4-1.8,12.7-2.7,19.1c-0.3,2-0.3,4-0.4,6.1c-1.3-1.8-0.9-3.9-0.7-5.7
			c0.6-5.6,1.3-11.2,2.1-16.9c0.4-3,1.2-6,1.5-9c0.6-6.1,2.8-11.5,6.2-16.6c0.4-0.6,1.1-1.1,1.7-1.7
			C170.8,118.3,171,118.4,171.1,118.5z"/>
		<path d="M319.1,197.8c-2.8,1.9-5.6,3.8-8.3,5.8c-0.3,0.2-0.6,0.7-1,0.7c-0.5,0.1-1.1,0-1.6,0c0.3-0.4,0.6-0.9,0.9-1.1
			c2.4-1.6,4.7-3.2,7.1-4.8c1.2-0.8,2.4-1.7,3.8-2.4c1.7-0.8,5.5,0.5,6.1,2.2c-2-0.1-3.8-2-5.8-1c0.8,2.4,1.7,4.8,2.3,7.1
			c0.5,1.9,0.3,3.8-0.7,5.7c-1.2,2.4-1.9,5.1-2.9,7.7c-0.5,1.4-1,2.9-1.8,4.1c-1.7,2.5-2.5,5.2-2.8,8.6c-0.5-0.5-0.9-0.8-0.8-1
			c0.5-2.5,0.5-5,2.3-7.1c0.9-1,1.3-2.4,2-3.9c-1.1-0.1-2-0.2-3.2-0.3c0.6-0.3,0.9-0.6,1.2-0.6c2.8,0.1,3-2.2,3.6-4
			c0.4-1,0.3-2.2,0.8-3.1C323.6,205.8,321.5,201.8,319.1,197.8z"/>
		<path d="M365.4,348.1c-1.5,0.7-2.9,1.5-4.4,2c-2.9,0.9-4.6,3.2-6.8,5c-0.4,0.3-0.5,1.2-0.4,1.8c0.1,2.7,0.3,5.5,0.4,8.2
			c0.1,4.4,0.2,8.8,0.3,13.3c0,1.2-0.6,2.6,1.1,3.3c0.1,0.1,0.2,0.8,0,1.1c-0.1,0.2-0.9,0.3-1,0.2c-0.4-0.6-1-1.2-1.1-1.8
			c-0.1-2.3,0-4.6-0.1-7c-0.2-5.6-0.5-11.2-0.7-16.8c-0.1-1.8,0.1-3.2,1.8-4.7c2.5-2.4,5.3-3.9,8.4-5.1c0.7-0.3,1.6-0.1,2.3-0.2
			C365.3,347.6,365.4,347.9,365.4,348.1z"/>
		<path d="M248.5,350.6c0.1-1.4,0.3-2.8,0.2-4.1c-0.1-1.9,1.1-2.7,2.3-3.6c-0.5,1.1-1,2.2-1.3,3.4c-0.5,2.1,0.8,4.7,2.7,5.8
			c1.2,0.7,2.3,0.1,2.7-1.2c0.1-0.6,0.4-1.1,0.7-2c-0.7,0.4-1.1,0.6-1.5,0.8c-0.1-0.1-0.1-0.2-0.2-0.3c0.8-0.7,1.7-1.4,2.5-2.2
			c0.2,0.1,0.4,0.2,0.5,0.3c-0.4,1.2-0.7,2.5-1.1,3.8c1.6-1.3,2.3-5.7,1.7-9.3c-0.6-3.3-1.9-6.3-4.6-8.5c0.1-0.2,0.3-0.3,0.4-0.5
			c0.7,0.5,1.5,0.9,1.9,1.5c3.8,5.3,4.3,11,1.6,16.9c-0.4,1-1.3,1.8-1.6,2.8c-0.2,0.9,0.1,1.9,0.2,2.8c0.8-0.1,1.6-0.2,2.4-0.3
			c-0.2,1-1,1.6-2.2,1.4c-1.4-0.3-1.7-1.4-1.6-2.6c0.1-0.9,0.4-1.7,0.6-2.6c-0.9-0.1-1.8-0.1-2.7-0.4c-0.7-0.2-1.4-0.8-2.1-1.3
			c-0.7,1.2-1.4,2.5-2.2,3.9c-0.2-0.1-0.4-0.2-0.6-0.3C248.6,353.6,249.2,352.2,248.5,350.6C248.5,350.5,248.5,350.6,248.5,350.6z"
			/>
		<path d="M225.1,107.6c-1.5,0.5-3,1.2-4.6,1.5c-3,0.4-6,0.6-9.1,0.9c-2.7,0.2-5.5,0.6-8.2,0.5c-6.9-0.1-13.5-1.5-19.2-5.6
			c-1.3-0.9-2.7-2.1-2.6-4.1c0.4,0.6,0.7,1.2,1.2,1.7c3,2.9,6.7,4.5,10.6,5.7c4,1.2,8.1,0.6,12.2,0.9c4.4,0.3,8.7,0,13.1-0.3
			c2.2-0.2,4.4-0.9,6.5-1.4C224.9,107.4,225,107.5,225.1,107.6z"/>
		<path d="M253.9,205.6c0-0.5-0.2-1,0-1.4c1.4-2.7,2.3-5.8,5.2-7.2c6.5-3.1,15.2-3.7,19.9,4.1c0.7,1.1,0.8,2.5,1.2,3.8
			c-0.2,0.1-0.3,0.2-0.5,0.3c-0.4-0.3-1.1-0.6-1.1-0.9c-0.1-3.4-2.4-5.1-4.9-6.7c-3.1-2-6.3-1.6-9.8-1c-5,0.9-7.4,4.4-9.2,8.5
			c-0.1,0.2-0.2,0.4-0.4,0.6C254.3,205.7,254.1,205.7,253.9,205.6z"/>
		<path d="M128.4,188.6c-4.3-4.4-7-9.8-8.1-15.7c-1.9-10.5,0.5-22.4,4.6-24.6c-3.8,6.6-4.7,13.5-4.1,20.8
			C121.4,176.5,124.7,182.6,128.4,188.6z"/>
		<path d="M279.3,208c0.4,1.9-0.2,3-1.8,3.9c-2.5,1.3-5,3-7.8,2.7c-4.8-0.5-9.7-1.1-13.6-4.6c-0.5-0.5-0.9-1-1.3-1.6
			c0.1-0.1,0.2-0.3,0.3-0.4c0.5,0.3,1.1,0.5,1.5,0.8c3.3,2.7,7.1,4.1,11.3,4.2c4.1,0.1,8-1.1,10.7-4.6
			C278.6,208.3,278.9,208.2,279.3,208z"/>
		<path d="M357,305.2c0-1.1,0-1.7,0-2.4c-1,1.1-1.8,2.5-3.1,3.2c-0.1-0.1-0.2-0.3-0.4-0.4c0.9-1.1,1.7-2.8,2.9-3.3
			c5.3-2.1,7.6-7.7,12.7-10c1.9-0.8,3.4-1.1,5.2-0.3c0.9,0.4,1.8,0.7,2.7,0.9c1.2,0.3,1.3,1,1.2,2.1c-1.7-0.5-3.3-1-4.8-1.6
			c-1.7-0.6-3.1-0.2-4.7,0.6c-4.1,2.1-6.7,5.8-10.2,8.6C358,303,357.7,304,357,305.2z"/>
		<path d="M224.7,330.4c0.8,2.6,1.6,5.2,2.4,7.9c0.6-2.3,0.6-4.5,2.3-6c0.2,0.1,0.4,0.1,0.6,0.2c-0.4,2.2-0.8,4.3-1.3,6.5
			c-0.4,1.9-0.6,3.8,1.8,4.7c-0.5-0.1-1.1-0.2-1.8-0.4c0.4,2.1,0.9,3.9,2.6,5.1c-1.5-0.7-2.8-1.4-3.3-3.1c-0.9-3.8-2-7.7-3-11.5
			c-0.3,0-0.6,0-0.9,0c-0.5,3.5-0.9,7.1-1.3,10.3c-0.1-0.5-0.6-1.6-0.4-2.6c0.4-2.8,0.1-5.8,2.1-8.3c0.4-0.5,0-1.8-0.1-2.7
			C224.6,330.5,224.7,330.5,224.7,330.4z"/>
		<path d="M111.3,366.2c0.1,0.1,0.1,0.2,0.2,0.2c0.1,3.7,0.3,7.4,0.4,11.1c0,2.1-0.2,4.3-0.4,6.4c-0.1,0.5-0.8,1-1.4,1.7
			c0.3-5.8,0.6-11.2,0.8-16.7c-2.8,0.8-5.2,1.5-7.5,2.2c-0.6,0.2-1.3,0.1-1.9,0.1l0,0c0.3-0.3,0.6-0.8,1-1
			C105.5,369.1,108.8,368.6,111.3,366.2C111.2,366.1,111.3,366.2,111.3,366.2z"/>
		<path d="M308.5,176.8c-1.9,0.7-3.4,0-4.6-1.3c-1.7-1.7-3.4-3.3-5.1-5c-1.9-1.9-2.4-4.4-2.8-6.8c-0.5-3.5-0.5-7-0.7-10.6
			c0.3,0,0.5-0.1,0.8-0.1c0.2,0.7,0.5,1.4,0.5,2.2c0.2,3,0.4,6,0.6,9.1c0.3,3.8,3.1,6,5.5,8.4c1.6,1.6,3,3.2,5.3,3.7
			C308.2,176.3,308.3,176.6,308.5,176.8z"/>
		<path d="M273.5,124.8c1,2,2,4,3.1,5.9c2.1,3.7,4.2,7.5,6.4,11.1c1.3,2.1,3.4,3.3,5.6,4.3c1.3,0.6,2.5,1.4,3.7,2.2
			c-5.9-0.8-9.8-4.2-12.5-9.3c-1.8-3.5-3.5-7-5.3-10.5c-0.3-0.5-0.8-0.9-1-1.4c-0.3-0.7-0.4-1.4-0.7-2.1
			C273.1,125,273.3,124.9,273.5,124.8z"/>
		<path d="M133.2,201.8c-1.5-0.6-2.9-1.1-4.3-1.7c0-0.1,0-0.2-0.1-0.4c0.5-0.1,1.1-0.3,1.6-0.2c4.5,1.3,8.8,2.8,12.4,6
			c1.1,1,2.5,1.8,3.7,2.8c0.3,0.3,0.3,0.9,0.4,1.4c-0.5-0.1-1.1-0.1-1.5-0.4c-2.5-1.9-5-3.8-7.5-5.6c-2.3-1.6-3.7-1.3-5.3,1
			c-0.8,1.1-1.4,2.4-2.1,3.7C129.5,205.3,132.3,204,133.2,201.8z"/>
		<path d="M267,207.7c-0.4,0-0.8,0.2-1.1,0c-1-0.7-2.4-1.4-2.7-2.4c-0.4-1.2,0.9-2.1,2.1-2.3c1.4-0.2,2.9-0.4,4.1,0
			c0.7,0.2,1.6,1.9,1.3,2.3c-0.5,1-1.7,1.6-2.6,2.3C267.9,207.9,267.4,207.7,267,207.7z"/>
		<path d="M142.6,240.3c-2.1-0.5-2-1.5-2.3-2.5c-0.8-2.5-1.9-5-2.8-7.4c-1.7-4.3-3.3-8.5-5-12.8c-0.5-1.3-1.2-2.6-1.6-4
			c-0.4-1.3-0.5-2.8-0.4-4.2C133.8,219.8,138,229.9,142.6,240.3z"/>
		<path d="M55.8,362.8c-0.4,2.8-1,5.6-1.3,8.4c-0.3,2.6-0.4,5.2-0.5,7.8c0,0.7,0.2,1.5,0.4,2.6c-0.6,0.2-1.5,0.5-2.7,0.9
			c1.6-7.2,1-14.3,2.8-21.1c0.2,0,0.4,0,0.6-0.1C55.3,361.9,55.5,362.4,55.8,362.8C55.7,362.9,55.8,362.8,55.8,362.8z"/>
		<path d="M143.4,194.2c5-7.4,9.9-14.5,14.8-21.7c-3.7,7.6-8.2,14.8-13.5,21.4C144.5,194.2,143.8,194.1,143.4,194.2z"/>
		<path d="M238.4,163.3c-0.6,0.4-1.1,1-1.7,1c-5,0.3-9.9,0.6-14.9,0.8c-1.1,0-2.3-0.4-3.5-0.5c0-0.2,0-0.4,0.1-0.7
			c6.5-0.4,13-0.8,19.5-1.2C238.1,163,238.3,163.2,238.4,163.3z"/>
		<path d="M388.7,306.9c-1.1,0.4-2.3,1.1-3.6,1.3c-1.1,0.2-2.4,0-3.3-0.6c-0.4-0.3-0.3-1.9,0-2.7c0.4-1.1,1.2-2,1.7-3.1
			c0.9-1.6,2.1-1.8,3.7-1c1.6,0.8,1.7,1.8,1.3,3.4C388.3,305,388.6,305.9,388.7,306.9z M385.3,301.5c-1,1.4-1.9,2.7-2.8,4.1
			c-0.2,0.3,0.1,1.2,0.4,1.4c1.3,0.6,3.9-0.4,4.5-1.7C388.3,303.6,387.9,302.9,385.3,301.5z"/>
		<path d="M111.1,298.8c0.4,0.2,0.8,0.4,1.1,0.7c4.3,4,7.9,8.7,10.6,14c0.4,0.9,0.9,1.8,1.3,2.7c-0.3,0.1-0.5,0.3-0.8,0.4
			c-1.8-3-3.5-6.2-5.5-9.1c-2.1-2.9-4.6-5.5-6.9-8.2C110.9,299.1,111,298.9,111.1,298.8z"/>
		<path d="M85.6,312.7c-0.8,0.6-1.7,1.4-2.7,1.9c-1.7,0.9-3.7,0.7-4.4-0.2c-0.7-1-0.4-4.1,0.6-5.2c2.3-2.6,3.7-2.3,5.1,0.9
			C84.5,310.9,85,311.7,85.6,312.7z M79.7,314.2c1.1-0.3,2.2-0.5,3.3-0.9c0.4-0.1,1-0.6,1-0.7c-0.5-1.3-1.1-2.5-1.8-3.7
			c-0.1-0.2-0.9-0.1-1.2,0C79.1,310,78.8,311.1,79.7,314.2z"/>
		<path d="M213.4,348.3c-0.9-0.9-2-1.6-2.6-2.7c-0.6-1.1-0.9-2.5-0.9-3.8c0.1-4.4-0.3-8.8,1.8-12.9c0.3-0.6,0.8-1.2,1.4-1.6
			c-1.7,4.1-2.3,8.3-2.4,12.5c-0.1,3,0.1,6.1,3.1,8C213.7,348,213.5,348.2,213.4,348.3z"/>
		<path d="M258.4,331.5c0.5,0.4,1.1,0.7,1.4,1.2c2.1,4.8,2.4,9.8,1.1,14.9c-0.2,0.9-0.6,1.8-2.3,1.3c2.2-1.2,2.1-3.1,2.1-4.9
			c0-3.5,0.1-6.9-1.5-10.1c-0.3-0.7-0.8-1.2-1.2-1.8C258.1,331.8,258.2,331.6,258.4,331.5z"/>
		<path d="M248.5,335.8c0.4,0.1,0.8,0.2,1.2,0.3c0.4-1.4,0.7-2.9,1.2-4.4c0-0.1,0.7,0,1.2,0c-1.6,1.7-2,5-0.8,6.9
			c1.9,3.2,1.9,6.5,0.7,9.9c-0.1-2.3,0.1-4.7-0.5-6.9C251,339.5,249.5,337.7,248.5,335.8L248.5,335.8z"/>
		<path d="M109.6,305.5c-0.9-0.3-1.5-0.3-1.8-0.6c-3.5-3.2-7.4-5.2-12.3-5.8C98,297.5,107.5,301.7,109.6,305.5z"/>
		<path d="M259.1,217.5c-3.3,0.9-8.1-1.2-9.5-4.3C252.7,214.6,255.7,216,259.1,217.5z"/>
		<path d="M159.6,272.6c0.6-2.2,1.1-4.3,1.7-6.5c0.9-3.3,1.8-6.5,2.8-9.8c0.2-0.8,0.6-1.5,0.9-2.2c0.2,0.1,0.3,0.1,0.5,0.2
			c-0.7,2.1-1.3,4.2-2,6.2c-1.3,3.9-2.5,7.8-3.8,11.7C159.7,272.4,159.6,272.5,159.6,272.6C159.5,272.6,159.6,272.6,159.6,272.6z"/>
		<path d="M157.4,266.9c0-2.9,3.9-13.2,6.1-15.2C161.4,256.8,159.4,261.8,157.4,266.9z"/>
		<path d="M395.2,308.7c-0.3-1.9,1.4-4.3,3.1-4.3c0.4,0,1.1,1.1,1.2,1.7c0.2,0.8,0.1,1.8-0.3,2.6c-0.2,0.5-1,0.9-1.6,1.1
			c-0.5,0.1-1.1-0.3-1.7-0.5c0-0.2,0.1-0.4,0.1-0.6c0.7-0.1,1.4-0.1,2.2-0.2c0-0.9,0-1.8,0-2.7c-0.2-0.1-0.3-0.1-0.5-0.2
			C396.9,306.6,396.1,307.6,395.2,308.7z"/>
		<path d="M328.8,195.3c-0.9-4.2-4.9-3.9-7.6-5.5c1.4-0.9,5.1,0.1,6.9,1.8C329.1,192.5,329.5,193.9,328.8,195.3z"/>
		<path d="M86.3,302.7c0.5-2.3,5.3-4.4,8.7-4.1c-0.8,2-2.9,1.1-4.2,2C89.6,301.4,88.1,301.9,86.3,302.7z"/>
		<path d="M99.6,313.3c3.4,1.7,6.9,3.4,10.3,5.1c-0.1,0.2-0.1,0.5-0.2,0.7c-0.5-0.1-1.2-0.1-1.6-0.3c-2-1-3.9-2.2-5.9-3.3
			c-1-0.5-2.1-0.8-3.1-1.3C99.3,313.9,99.4,313.6,99.6,313.3z"/>
		<path d="M260.6,279.4c0.2,3.7,0.4,7.2,0.6,10.8c0,0.1-0.4,0.2-0.7,0.3C259.5,283.9,259.5,280.7,260.6,279.4z"/>
		<path d="M245.4,341.6c-0.3-1-0.6-1.9-0.8-2.9c-0.1-0.7,0.1-1.5,0.2-2.2c1.6,3.5,3.1,7,2.2,10.4C246.6,345.4,246,343.5,245.4,341.6
			L245.4,341.6z"/>
		<path d="M89.8,313.2c3.1,0,5.9,0,9,0C96.6,314.7,90.9,314.8,89.8,313.2z"/>
		<path d="M219.5,289.8c-0.3-3.8-0.6-7.6-0.9-11.4c0.2,0,0.4,0,0.7-0.1c0.4,3.8,0.7,7.6,1.1,11.4
			C220.1,289.7,219.8,289.8,219.5,289.8z"/>
		<path d="M204.7,259.6c-0.3-1.7,4.6-9,6.8-9.7C209.2,253.2,207,256.4,204.7,259.6z"/>
		<path d="M161.3,249.6c-3.4,2.4-3.2,6.4-4.5,9.8C156.8,254.7,157.7,250.9,161.3,249.6z"/>
		<path d="M285.3,271.3c1,1.9,2,3.7,3.3,6c0.1-1.2,0.2-1.8,0.2-2.7c0.7,2.1,1.3,3.8,2,6C287.6,278,286.5,274.6,285.3,271.3z"/>
		<path d="M177.7,107.9c-1.6,3.8-3.1,7.6-4.7,11.4c-0.2-0.1-0.5-0.2-0.7-0.3c1.6-3.8,3.3-7.5,4.9-11.3
			C177.3,107.7,177.5,107.8,177.7,107.9z"/>
		<path d="M209.1,283.9c0.6,3.8,1.1,7,1.7,10.6C209.4,293.3,208.2,285.7,209.1,283.9z"/>
		<path d="M200.6,325.6c0.2-4,0.4-7.9,0.6-12C202.2,315.5,202,321.7,200.6,325.6z"/>
		<path d="M271.7,332.1c0.7-2.1,1.4-4.2,2-6.3c0.2,0.1,0.3,0.1,0.5,0.2c-1,3.9-2,7.8-3,11.7c-0.2,0-0.3-0.1-0.5-0.1
			C271.1,335.7,271.4,333.8,271.7,332.1C271.7,332,271.7,332.1,271.7,332.1z"/>
		<path d="M180.3,277.5c-2-0.4-1.6,0.9-1.8,1.8c-0.2,1-0.3,2.1-0.4,3.1c-0.2,0-0.4,0-0.5,0c0.2-1.6,0.1-3.2,0.5-4.7
			c0.4-1.6,1.2-3.1,1.9-4.7C180.1,274.3,180.2,275.9,180.3,277.5z"/>
		<path d="M256.3,279.1c0,2.9,0,5.9,0,8.9C255,287,254.9,282.5,256.3,279.1z"/>
		<path d="M282.9,300.7c-0.4-0.8-1-1.5-1.3-2.3c-1-2.5-1.8-5.1-2.5-7.7C280.9,293.8,282.6,296.9,282.9,300.7
			C282.8,300.7,282.9,300.7,282.9,300.7z"/>
		<path d="M248.5,350.5c-0.4,0-1,0.1-1.2-0.1c-2-1.9-3.4-4.2-2.8-7.2c0.1-0.6,0.6-1.1,1-1.6l0,0c0.1,0.3,0.2,0.6,0.1,0.9
			C244.3,345.9,246.4,348.2,248.5,350.5C248.5,350.6,248.5,350.5,248.5,350.5z"/>
		<path d="M252.5,288.8c-0.2-3.5-0.3-6.5-0.5-9.6c0.2,0,0.4,0,0.6-0.1c0.3,2.8,0.6,5.6,0.9,8.4C253.5,287.8,253,288.1,252.5,288.8z"
			/>
		<path d="M137.2,224.6c1.6-1.2,4.4-1.5,7.4-0.4c-2.4,0.3-4.9,0.7-7.3,1C137.3,225,137.2,224.8,137.2,224.6z"/>
		<path d="M170.7,266.1c-0.9,3.6-0.7,7.5-3,10.8c0.8-3.7,1.7-7.3,2.5-11C170.4,266,170.5,266,170.7,266.1z"/>
		<path d="M62.2,308.7c-0.2,0.8-0.3,1.2-0.5,1.6c-0.4,1.3-0.9,2.7-1.4,4c-0.1,0.4-0.4,0.7-0.6,1c-0.2-0.3-0.6-0.8-0.6-1
			c0.4-1.6,0.9-3.2,1.5-4.8C60.8,309.2,61.4,309.1,62.2,308.7z"/>
		<path d="M155.4,253.1c0.3-3.6,2.2-6.9,5.3-9.8C158.8,246.7,157.1,250,155.4,253.1z"/>
		<path d="M216.8,280.6c0.3,3.1,0.7,6.3,1,9.4c-0.2,0-0.5,0-0.7,0.1c-0.4-3.1-0.7-6.3-1.1-9.4C216.3,280.6,216.5,280.6,216.8,280.6z
			"/>
		<path d="M176.1,268.1c-0.8,3.5-1.6,6.9-2.4,10.4c-0.2,0-0.4-0.1-0.6-0.1c0.7-3.5,1.5-6.9,2.2-10.4
			C175.7,268,175.9,268.1,176.1,268.1z"/>
		<path d="M222.3,287.8c0.1-2.9-1.1-5.8-0.1-8.7c0.2,0,0.4,0,0.6,0c0,2.9,0,5.8,0,8.7C222.6,287.8,222.5,287.8,222.3,287.8z"/>
		<path d="M227.1,343.9c-1.1,3.7,1.3,6.1,2.8,8.7C227.1,351.6,225,345.7,227.1,343.9z"/>
		<path d="M297.8,269.7c-1.4-3.5-4.7-5.9-5.4-9.7c2,3.1,4,6.2,6,9.3C298.2,269.4,298,269.5,297.8,269.7z"/>
		<path d="M275.9,267.3c1.2,1.4,0.4,2.1-0.3,2.7c-0.7,0.6-1.3,1.9-3,0.8C273.8,269.6,274.8,268.5,275.9,267.3z"/>
		<path d="M267.1,318.9c0.6,1.9,1.2,3.7,1.8,5.6c-1,0-2.6-2-2.8-3.8C266,319.9,266,318.8,267.1,318.9z"/>
		<path d="M154.2,244.2c-0.2-2.1,2.8-7,4.9-7.9C157.5,238.8,155.9,241.5,154.2,244.2z"/>
		<path d="M289.6,266.5c1.5,2.9,3,5.7,4.5,8.6c-0.1,0.1-0.3,0.2-0.4,0.2c-0.8-1.3-1.6-2.5-2.4-3.8c0.1,0,0.1,0,0.2,0
			c-0.8-1.6-1.5-3.1-2.3-4.7C289.2,266.6,289.4,266.6,289.6,266.5z"/>
		<path d="M192,305.9c-0.3,2.9-0.6,5.9-0.8,8.8c-0.2,0-0.4,0-0.5,0c0.2-2.9,0.4-5.9,0.6-8.8C191.5,305.8,191.8,305.9,192,305.9z"/>
		<path d="M154.1,248.1c-0.2-2,1.8-5.8,4.5-7.8C157.1,243,155.5,245.7,154.1,248.1z"/>
		<path d="M248.5,335.8c-0.2-0.1-0.3-0.2-0.5-0.4c-0.2,0.6-0.4,1.2-0.6,1.9c-0.5-4,1.2-7,4.3-7.2
			C249.1,331.4,248.1,333.2,248.5,335.8L248.5,335.8z"/>
		<path d="M187.6,303.4c0.1-2.6,0.3-5.3,0.4-7.9c0.2,0,0.4,0,0.6,0c-0.1,2.6-0.3,5.3-0.4,7.9C188.1,303.4,187.8,303.4,187.6,303.4z"
			/>
		<path d="M283,271.4c1.2,2.8,2.2,5.1,3.3,7.4C284.6,276.7,282.8,274.6,283,271.4z"/>
		<path d="M225.1,278.8c0,2.7,0,5,0,7.5C224,285,224,280.5,225.1,278.8z"/>
		<path d="M178.4,289.6c-0.6,2.8-1.2,5.5-1.9,8.3C176.1,294.8,177.1,292.2,178.4,289.6z"/>
		<path d="M196.1,305.3c-0.3-2.3-0.6-4.5-0.9-6.8c0.3,0,0.5-0.1,0.8-0.1c0.3,2.3,0.5,4.5,0.8,6.8
			C196.6,305.2,196.3,305.3,196.1,305.3z"/>
		<path d="M251.2,247c3.2,0.8,4.4,3.4,6,5.5C255.2,250.8,253.3,249,251.2,247z"/>
		<path d="M191.5,297c-0.2-2.4-0.4-4.8-0.6-7.1c0.2,0,0.4,0,0.6,0C191.5,292.2,191.5,294.6,191.5,297z"/>
		<path d="M197.1,315.6c-0.2,2.1-0.4,4.3-0.5,6.4c-0.2,0-0.4,0-0.6,0c0.1-2.1,0.2-4.3,0.3-6.4C196.6,315.5,196.8,315.5,197.1,315.6z
			"/>
		<path d="M229.4,279.1c0.3,1.4,0.6,2.7,0.9,4.1c0,0.2-0.3,0.4-0.6,0.5c-0.1,0.1-0.5-0.1-0.5-0.2c-0.2-1.4-0.4-2.9-0.6-4.3
			C228.9,279.2,229.1,279.2,229.4,279.1z"/>
		<path d="M264.2,282.4c0,1.7,0,3.5,0,5.3C262.9,286.3,262.8,284.1,264.2,282.4z"/>
		<path d="M213,286.5c0,2,0,4.1,0,6.1C212.1,290.6,212,288.5,213,286.5z"/>
		<path d="M239.2,309.3c-2,0.3-3.9,0.6-5.9,0.9C234.3,308.8,237.5,308.3,239.2,309.3z"/>
		<path d="M169.8,288c0.3-2.8,0.6-5.5,2.6-8C171.4,282.8,170.6,285.4,169.8,288z"/>
		<path d="M245,285.2c-1.1-0.8-1.4-4-0.5-6.6C244.7,280.7,244.9,282.9,245,285.2z"/>
		<path d="M159,230c-2,0.7-3.7,1.2-5.4,1.8C154.1,230.1,156,229.4,159,230z"/>
		<path d="M250.6,286.5c0-2.1,0-4.2,0-6.2c0.1,0,0.3,0,0.4,0c0,2.1,0,4.2,0,6.2C250.9,286.5,250.8,286.5,250.6,286.5z"/>
		<path d="M157.6,224.3c-1.9,0.3-3.7,0.6-5.6,0.9c0-0.2-0.1-0.5-0.1-0.7c1.8-0.3,3.7-0.6,5.5-0.9C157.5,223.8,157.6,224,157.6,224.3
			z"/>
		<path d="M164.4,287.8c0.4-2.1,0.8-4.1,1.2-6.2c0.2,0.1,0.5,0.1,0.7,0.2c-0.5,2-1,4.1-1.5,6.1C164.7,287.9,164.5,287.8,164.4,287.8
			z"/>
		<path d="M247.3,286.1c-0.1-1.6-0.2-3.2-0.3-4.9c0.2,0,0.4,0,0.6,0c0.2,1.6,0.4,3.3,0.6,4.9C248,286,247.7,286,247.3,286.1z"/>
		<path d="M270.4,291c1.1,2.1,2.3,4.2,3.4,6.3c-0.2,0.1-0.3,0.2-0.5,0.3c-1.1-2.1-2.2-4.2-3.4-6.3C270,291.2,270.2,291.1,270.4,291z
			"/>
		<path d="M271.4,304.4c1.1,2,2.2,4,3.3,6c-0.2,0.1-0.3,0.2-0.5,0.3c-1.1-2-2.2-4-3.3-6C271,304.6,271.2,304.5,271.4,304.4z"/>
		<path d="M205.5,304.8c0.2-2,0.4-4.1,0.6-6.1c0.2,0,0.5,0.1,0.7,0.1c-0.3,2-0.5,4.1-0.8,6.1C205.9,304.9,205.7,304.8,205.5,304.8z"
			/>
		<path d="M276.3,278.2c1,2.1,1.9,4.2,2.9,6.3c-0.2,0.1-0.4,0.2-0.6,0.3c-0.9-2.1-1.8-4.3-2.7-6.4
			C276,278.3,276.2,278.2,276.3,278.2z"/>
		<path d="M231.8,159.4c-1.2,0.3-2.5,0.6-3.9,1C228.3,158.6,228.7,158.5,231.8,159.4z"/>
		<path d="M241.6,280.6c0.2,1.7,0.4,3.5,0.6,5.2c-0.3,0-0.6,0-0.8,0.1c-0.1-1.8-0.2-3.5-0.3-5.3
			C241.2,280.7,241.4,280.7,241.6,280.6z"/>
		<path d="M238.7,307.6c-2.1,0.2-3.7,0.3-5.5,0.5C234.3,306.9,237.3,306.5,238.7,307.6z"/>
		<path d="M215.5,323.2c0.5,1.8,1,3.7,1.5,5.5c-0.2,0.1-0.4,0.1-0.6,0.2c-0.5-1.9-1-3.7-1.5-5.6
			C215.1,323.2,215.3,323.2,215.5,323.2z"/>
		<path d="M153,228.1c1.6-0.4,3.2-0.8,4.7-1.2c0.1,0.2,0.1,0.5,0.2,0.7c-1.6,0.4-3.1,0.8-4.7,1.3C153.1,228.6,153.1,228.3,153,228.1
			z"/>
		<path d="M182.7,286.2c0.3-1.8,0.7-3.7,1-5.5c0.2,0,0.5,0.1,0.7,0.1c-0.4,1.8-0.8,3.7-1.3,5.5C183,286.2,182.9,286.2,182.7,286.2z"
			/>
		<path d="M293.1,278.7c-0.5-1.5-1-2.9-1.5-4.4c0.2-0.1,0.3-0.1,0.5-0.2c0.6,1.4,1.2,2.9,1.8,4.3
			C293.6,278.5,293.4,278.6,293.1,278.7z"/>
		<path d="M158.2,233.4c-1.4,0.5-2.7,1-4.1,1.4c-0.1-0.2-0.2-0.5-0.3-0.7c1.4-0.4,2.8-0.9,4.2-1.3C158,233,158.1,233.2,158.2,233.4z
			"/>
		<path d="M269.3,305c-0.6-1.4-1.1-2.9-1.7-4.3c0.1-0.1,0.3-0.1,0.4-0.2c0.7,1.4,1.4,2.7,2,4.1C269.8,304.8,269.5,304.9,269.3,305z"
			/>
		<path d="M284.7,285.5c-1.1-1.7-2.2-3.4-3.4-5c0.2-0.1,0.4-0.2,0.6-0.4c1,1.7,2.1,3.5,3.1,5.2C285,285.3,284.9,285.4,284.7,285.5z"
			/>
		<path d="M198.8,306.3c0.1,1.6,0.3,3.3,0.4,5C197.8,309.2,197.7,307.7,198.8,306.3z"/>
		<path d="M178.9,294.8c0.2-1.5,0.5-3.1,0.7-4.6c0.2,0,0.5,0.1,0.7,0.1c-0.3,1.5-0.6,3.1-0.9,4.6
			C179.3,294.9,179.1,294.9,178.9,294.8z"/>
		<path class="st9" d="M237.1,201.8c0.2,3.1,0.7,6.3,0.7,9.4c-0.1,5.6,1.5,11,2,16.6c0.5,5.7,1.3,11.5,2.2,17.2
			c0.4,2.7,1.2,5.5,2.2,8.1c0.4,1.1,1.8,1.8,2.6,2.8c1.1,1.3,2.6,2.7,2.8,4.2c0.2,1.5-0.5,3.5-1.5,4.7c-2.3,2.5-4.8,5-7.7,6.8
			c-2.4,1.5-5.2,2.4-8.3,1c-2.1-0.9-4.5-0.9-6.8-1.5c-0.8-0.2-1.5-1.2-2.3-1.7c-1.5-1.1-3.2-1.9-4.5-3.1c-0.6-0.5-1-1.9-0.8-2.7
			c0.6-2.3,0.9-5,2.4-6.7c2.1-2.5,1.5-5.2,1.6-7.9c0.3-4.6,0.2-9.2,0-13.8c-0.2-3.7-0.8-7.3-1.1-11c-0.2-3.1-0.4-6.2-0.5-9.3
			c-0.1-4,0-8-0.3-12c-0.1-1.9,0.5-3.4,1.7-4.5c1.9-1.6,3.9-3,6.6-2.8c2.2,0.2,4.5,0.5,6.7,1c1.8,0.4,2.8,1.5,2.4,3.5
			c-0.1,0.6,0,1.2,0,1.8C237.2,201.8,237.2,201.8,237.1,201.8z"/>
		<path class="st6" d="M219,198.9c-2.4-4.4-1.3-7.4,3.6-9.6c4.8-2.2,9.6-2.1,14.6-0.6c1.9,0.6,2.6,2,3.1,3.5s-0.4,2.7-1.7,3.7
			c-0.2,0.2-0.5,0.4-0.8,0.7c-2.7-2.8-6.3-2.8-9.8-2.8C224.3,193.8,221.5,196,219,198.9z"/>
		<path class="st5" d="M400.5,348.7c6.2-0.7,9.8,3.3,13.4,8c-4.3,2.7-8.6,5.3-12.9,8c-0.2-0.1-0.3-0.3-0.5-0.4
			C400.5,359.1,400.5,353.9,400.5,348.7z"/>
		<path class="st5" d="M111.3,366.2c-0.1,0-0.1,0-0.2,0c-2.4,2.4-5.7,2.9-8.7,4.1c-0.4,0.2-0.7,0.7-1,1c-1.2,0.1-2.3,0.2-3.5,0.3
			c0.5-4.4,1-8.7,1.4-13C104.6,359.1,108.4,361.9,111.3,366.2z"/>
		<path class="st6" d="M251,178.3c-1.8-1-3.4-2.1-3.3-4.3c0.1-2.4,2.4-4.9,4.6-5.2c4.5-0.8,9-1.9,13.6-2.6
			c5.8-0.8,10.4,1.8,14.3,5.8c0.2,0.2,0.3,0.6,0.6,1c-0.4,0.3-0.9,0.5-1.3,0.8c-3.2-3.2-7.1-4.9-11.4-5.7c-0.3-0.1-0.8-0.2-1.1-0.1
			c-3.2,1.2-6.6,2-9.6,3.7c-2.1,1.2-3.6,3.6-5.4,5.4C251.7,177.6,251.4,177.9,251,178.3z"/>
		<path class="st6" d="M206.5,181.8c-0.1-0.1-0.4-0.1-0.4-0.3c-2.2-3.7-6-5.2-9.6-6.8c-2.6-1.2-5.3-2.1-8.3-2
			c-4.1,0.1-7.3,2.3-10.7,4.2c-0.5,0.3-1.2,0.2-1.8,0.3c0.3-0.6,0.4-1.5,0.9-1.8c2.5-1.8,5-3.6,7.6-5.2c2.5-1.6,5.3-1.9,8.2-1.6
			c1.4,0.1,2.7,0.1,4.1,0.3c1.1,0.2,2.2,0.5,3.2,1c1.5,0.8,2.9,1.7,4.8,1.2c1.5-0.4,2.8,0.5,3.3,2c0.4,1.2,0.8,2.5,1.2,3.7
			c0.5,1.8-0.3,3-1.7,3.9C207,181,206.8,181.5,206.5,181.8z"/>
		<path class="st1" d="M236.2,293.2c4.9,0.2,9.1,2,13,4.6c1.7,1.2,1.8,2.6,0,3.8c-0.6,0.4-1.4,0.9-2.1,1c-2.8,0.4-5.5,0.8-8.3,0.9
			c-4.5,0.1-9.1,0-13.6,0c-0.9,0-1.8-0.2-2.6-0.5c-1.9-0.6-2.5-3-0.9-4.2c2.5-1.7,5.2-3.2,8-4.4C231.7,293.6,234,293.6,236.2,293.2z
			"/>
		<path class="st1" d="M241.6,342.4c0.1,0.6,0.1,1.3,0.4,1.8c0.6,1.3,1.2,2.6,1.7,4c-2.2-1.4-3.1-3.7-2.8-6.6
			C241.2,341.9,241.4,342.2,241.6,342.4C241.7,342.5,241.6,342.4,241.6,342.4z"/>
		<path class="st1" d="M385.3,301.5c2.6,1.4,3,2.1,2.2,3.7c-0.6,1.3-3.2,2.3-4.5,1.7c-0.3-0.1-0.6-1.1-0.4-1.4
			C383.4,304.2,384.4,302.9,385.3,301.5z"/>
		<path class="st1" d="M79.7,314.2c-0.9-3-0.7-4.1,1.2-5.2c0.3-0.2,1.1-0.2,1.2,0c0.7,1.2,1.3,2.5,1.8,3.7c0,0.1-0.6,0.6-1,0.7
			C82,313.6,80.8,313.9,79.7,314.2z"/>
		<path d="M178,207c1.3-3.5,3.1-6.2,5.7-8.4c0.5-0.4,1.3-0.3,2-0.4c3.1-0.4,6.2-1,9.3-1.1c3-0.1,6.1,0.5,8,3.1
			c1.5,2,2.5,4.4,3.6,6.6c-0.2,0.1-0.4,0.3-0.5,0.4c-0.3-0.2-0.7-0.4-0.9-0.7c-0.8-1.4-1.8-2.7-2.3-4.2c-0.9-3-3.4-3.6-5.8-3.6
			c-4.1,0.1-8.3,0.6-12.4,1.3c-2,0.3-2.8,2.3-3.8,3.9c-0.6,0.9-1.2,1.8-1.9,2.6C179,206.8,178.5,206.8,178,207z"/>
		<path d="M179.6,209.8c2.8,5.7,7.8,7.5,13.6,7c5.4-0.5,10.6-1.6,13.2-7.6c0.2,0.2,0.4,0.3,0.7,0.5c-0.2,0.8-0.3,1.7-0.7,2.3
			c-2.9,4.7-7.8,5.5-12.7,6.1c-3.3,0.4-6.8,0.2-9.6-1.8c-1.8-1.3-3.2-3.2-4.6-4.9c-0.2-0.3-0.1-0.9-0.1-1.3
			C179.3,210,179.4,209.9,179.6,209.8z"/>
		<path d="M192.1,204.9c0.4-0.1,0.9-0.1,1.3,0c0.9,0.3,1.9,0.4,2.5,1c0.5,0.4,0.6,1.9,0.2,2.5c-0.9,1.5-4.3,2.4-5.8,1.6
			c-0.6-0.3-1.3-1.3-1.3-2c-0.1-0.7,0.4-1.7,0.9-2.2C190.5,205.3,191.3,205.1,192.1,204.9z"/>
		<path d="M210.4,214.5c-0.5,1.1-0.6,2.1-1.1,2.6c-1.6,1.4-3.3,2.7-5,4c-0.3,0.2-1-0.1-1.5-0.2c0.2-0.4,0.3-1,0.6-1.2
			c1.9-1.7,3.8-3.3,5.7-4.9C209.3,214.7,209.7,214.7,210.4,214.5z"/>
		<path d="M70.6,309.6c-1.3,0.4-2.3,0.7-3.3,1c0.1,0.3,0.1,0.7,0.3,1c0.5,0.7,1.1,1.4,1.6,2.1c0.4-0.7,0.7-1.3,1.1-2
			c0.2-0.3,0.4-0.5,0.6-0.8c0.9,2.4,0.5,3.9-1,4.2c-1,0.2-1.9,0.1-2.4-1c-0.2-0.5-0.5-1.1-0.7-1.6c-0.2-0.8-0.8-1.9-0.5-2.5
			c0.7-1.2,2-1.3,3.4-0.8C69.8,309.2,69.9,309.3,70.6,309.6z"/>
	</g>
</g>
</svg>
