<svg id="Calque_2" data-name="Calque 2" xmlns="http://www.w3.org/2000/svg" viewBox="0 0 537.4287 537.4287"><defs><style>.cls-1{fill:#fff;}</style></defs><title>logo IdeesCulture blanc</title><path class="cls-1" d="M265.1944,383.5306a5.6393,5.6393,0,0,1-4.3057-.8193,6.2771,6.2771,0,0,1-2.419-4.3457l-6.8579-38.5108-26.539,4.7276,7.0854,39.7685a36.762,36.762,0,0,0,3.36,10.3721,23.347,23.347,0,0,0,5.7622,7.3857,19.3367,19.3367,0,0,0,7.9292,3.94c.55.1338,1.1343.1865,1.7065.2675a34.3821,34.3821,0,0,1,8.9619-2.914q2.8185-.5112,5.1294-.7139a26.2029,26.2029,0,0,1,3.8736-.0166,30.498,30.498,0,0,0,5.7319-3.81l-4.5493-17.7578A10.6469,10.6469,0,0,1,265.1944,383.5306Z" transform="translate(-172.6514 -26.6546)"/><path class="cls-1" d="M572.94,361.3216q1.4913-7.8456,5.5635-12.1054a17.9005,17.9005,0,0,1,3.043-2.4873l-10.7617,1.9521Z" transform="translate(-172.6514 -26.6546)"/><path class="cls-1" d="M424.56,342.4759c-.0567-.5517-.1338-1.12-.2393-1.708a41.6625,41.6625,0,0,0-3.997-11.98,29.1615,29.1615,0,0,0-7.2359-9.0976,26.0945,26.0945,0,0,0-10.291-5.1787,30.569,30.569,0,0,0-13.0991-.2266,38.7379,38.7379,0,0,0-13.0342,4.748,33.5961,33.5961,0,0,0-9.8042,8.6963,32.1377,32.1377,0,0,0-5.56,11.8369,33.9321,33.9321,0,0,0-.28,14.1661,35.2069,35.2069,0,0,0,3.1226,9.5732l23.8672-7.499,36.6475-11.7237C424.6489,343.5638,424.6162,343.0316,424.56,342.4759Zm-39.7564,1.6924a19.2647,19.2647,0,0,1-.15-5.0644,12.5427,12.5427,0,0,1,1.2212-4.3057,8.8626,8.8626,0,0,1,6.6148-4.8447q7.3959-1.3213,10.9726,6.3545Z" transform="translate(-172.6514 -26.6546)"/><path class="cls-1" d="M630.4619,351.5179a8.3487,8.3487,0,0,0-6.2129,4.5811,11.7008,11.7008,0,0,0-1.1357,4.0576,18.0755,18.0755,0,0,0,.1494,4.7724l17.543-7.4589Q637.4218,350.2572,630.4619,351.5179Z" transform="translate(-172.6514 -26.6546)"/><path class="cls-1" d="M615.85,26.6546H266.8843a94.2322,94.2322,0,0,0-94.2329,94.2329V469.8529a94.2332,94.2332,0,0,0,94.2329,94.23H615.85a94.2343,94.2343,0,0,0,94.23-94.23V323.4037l-72.2774,13.1152c.7872.1182,1.5665.248,2.3174.4385a24.622,24.622,0,0,1,9.7032,4.8457,27.4137,27.4137,0,0,1,6.833,8.55,39.0232,39.0232,0,0,1,3.7939,11.2646c.0977.5518.1748,1.0879.2315,1.6035.0566.5235.09,1.0264.0976,1.5137l-34.4648,11.1309a10.5833,10.5833,0,0,0,5.71,5.2949,16.6169,16.6169,0,0,0,8.6231.3613A42.6509,42.6509,0,0,0,657.249,374.12l5.8233,15.7568a57.2984,57.2984,0,0,1-23.1475,9.3252,38.443,38.443,0,0,1-13.9668.1181,31.8467,31.8467,0,0,1-11.708-4.6054,29.9647,29.9647,0,0,1-8.6435-8.6719,33.94,33.94,0,0,1-4.4756-25.3955A30.3124,30.3124,0,0,1,606.3291,349.5a31.481,31.481,0,0,1,9.208-8.2089c.669-.4024,1.3672-.751,2.0655-1.1036l-28.3858,5.1494,6.501,17.7295q-11.2192,2.0333-16.0371,5.4454-4.8208,3.4028-3.8438,8.7939L581.5391,408.8l-24.8516,4.5-10.7207-60.1152.0039-.0039a24.6465,24.6465,0,0,0,4.1348-4.6992,21.65,21.65,0,0,0,3.6562-7.6289,22.9335,22.9335,0,0,0,.1221-9.4063,21.2046,21.2046,0,0,0-3.3281-8.5869,18.6187,18.6187,0,0,0-5.8955-5.4785,24.0578,24.0578,0,0,0-7.8936-2.8486,46.73,46.73,0,0,0-9.3613-.7022,10.4025,10.4025,0,0,1-2.293-.1094,9.34,9.34,0,0,1-2.1953-.6123,5.3266,5.3266,0,0,1-1.708-1.124,3.0879,3.0879,0,0,1-.873-1.6963q-.4687-2.6425,6.9882-3.9726,5.9956-1.0724,15.68.1943l-.0439-15.83a31.1675,31.1675,0,0,0-10.3643-1.1767,91.7543,91.7543,0,0,0-11.31,1.3369,45.1958,45.1958,0,0,0-10.2792,3.0293,24.1379,24.1379,0,0,0-7.6856,5.2,18.6943,18.6943,0,0,0-4.46,7.542,23.2157,23.2157,0,0,0-.6005,10.0761,26.5462,26.5462,0,0,0,2.7841,8.3672,16.3557,16.3557,0,0,0,4.7842,5.4463,19.4355,19.4355,0,0,0,6.8086,2.9746,42.4364,42.4364,0,0,0,8.8555,1.0147c1.14.0117,2.2314.081,3.2822.1943a12.6548,12.6548,0,0,1,2.8574.625,7.1787,7.1787,0,0,1,2.2071,1.2334,4.3418,4.3418,0,0,1,1.3232,1.94q.5361,3.019-5.6973,4.1308a27.9469,27.9469,0,0,1-3.0312.35c-1.124.0645-2.24.1133-3.3526.1377-1.1074.0283-2.15.0283-3.12.0088-.9746-.0293-1.7734-.0449-2.4062-.0654-.6778-.0039-1.542-.0694-2.59-.1826-1.0507-.1133-2.2841-.2481-3.6963-.3819l-.166,15.3516a37.8745,37.8745,0,0,0,7.2188,1.0957l-27.9795,5.0771a55.8331,55.8331,0,0,0,10.2627-5.6005l-6.14-16.76q-9.1009,6.2945-17.6611,7.8242a17.686,17.686,0,0,1-9.1582-.4219,11.2335,11.2335,0,0,1-6.0508-5.6367l36.6475-11.7236c-.0078-.5195-.04-1.0508-.0977-1.6065-.0566-.5527-.1338-1.12-.2392-1.7089a41.6332,41.6332,0,0,0-3.9971-11.98,29.1677,29.1677,0,0,0-7.2354-9.0977,26.1053,26.1053,0,0,0-10.291-5.1777,30.5516,30.5516,0,0,0-13.0986-.2276,38.7688,38.7688,0,0,0-13.0352,4.7481,33.5927,33.5927,0,0,0-9.8037,8.6963,32.144,32.144,0,0,0-5.5595,11.8369,36.0806,36.0806,0,0,0,4.6831,26.9814,31.55,31.55,0,0,0,9.1547,9.24,33.6181,33.6181,0,0,0,12.4219,4.9306c1.002.19,2.0244.32,3.0557.4258l-5.7588,1.043,2.6016,14.3535-13.5743,2.459,3.7295,20.6025a5.844,5.844,0,0,0,2.8809,4.4317,8.707,8.707,0,0,0,5.7549.6044,11.7051,11.7051,0,0,0,5.1494-2.3984l3.9883,16.7637a38.5841,38.5841,0,0,1-16.97,7.3525,22.7241,22.7241,0,0,1-9.22-.0732,17.8311,17.8311,0,0,1-7.4668-3.66,21.8661,21.8661,0,0,1-5.4375-6.9023,34.6156,34.6156,0,0,1-3.21-9.8408l-3.9361-22.4-7.479,1.3554L408.53,377.4037l9.3213-1.6885,3.0273-21.6738q-9.1,6.2943-17.66,7.8242a17.69,17.69,0,0,1-9.1592-.4219,11.2363,11.2363,0,0,1-6.05-5.6367l11.959,59.9521a5.81,5.81,0,0,0,2.8852,4.4561,8.8,8.8,0,0,0,5.75.58,11.9331,11.9331,0,0,0,5.1494-2.3985l3.9893,16.7637a38.5671,38.5671,0,0,1-16.9668,7.35,22.6747,22.6747,0,0,1-9.2236-.0693,17.9233,17.9233,0,0,1-7.4668-3.66,21.88,21.88,0,0,1-5.4375-6.9033,34.7722,34.7722,0,0,1-3.21-9.84l-7.0547-36.6279-11.3847,2.0654-15.814-88.7636-25.6992,8.7324,5.7866,32.4678q-4.4253-6.4161-10.1006-8.5215a24.0436,24.0436,0,0,0-12.7661-.84,27.8382,27.8382,0,0,0-11.1958,4.6221,31.684,31.684,0,0,0-8.502,8.7529,34.0931,34.0931,0,0,0-4.8125,11.76A35.8965,35.8965,0,0,0,286.6,390.8841a31.5159,31.5159,0,0,0,10.936,5.6162,26.1845,26.1845,0,0,0,4.8716.8809l-30.9682,5.624c.8193.13,1.6269.211,2.4629.4219a45.2,45.2,0,0,1,4.9267,1.6152l.6167,16.5244a38.1718,38.1718,0,0,0-11.87.0684,13.0182,13.0182,0,0,0-4.7012,1.7656,10.7593,10.7593,0,0,0-3.23,3.1573,11.18,11.18,0,0,0-1.6572,4.3056,16.0278,16.0278,0,0,0,1.834,10.12,11.6784,11.6784,0,0,0,3.0981,3.5069,10.5189,10.5189,0,0,0,4.23,1.8584,13.4231,13.4231,0,0,0,5.1377-.0088,34.3693,34.3693,0,0,0,10.68-4.0127l5.3672,16.5117a30.1512,30.1512,0,0,1-8.09,4.7031,51.8377,51.8377,0,0,1-9.0371,2.4307,36.2315,36.2315,0,0,1-13.2353.0771,30.5143,30.5143,0,0,1-11.271-4.4961,29.0876,29.0876,0,0,1-8.4282-8.66,33.6733,33.6733,0,0,1-4.7095-12.3809,31.485,31.485,0,0,1,.268-13.2861,30.8129,30.8129,0,0,1,5.2-11.15,31.8579,31.8579,0,0,1,9.0577-8.2178c.55-.3369,1.122-.625,1.6879-.9257l-29.67,5.3857V133.0067a58.8958,58.8958,0,0,1,58.8955-58.8955H603.7276a58.8967,58.8967,0,0,1,58.8984,58.8955V332.015l47.4541-8.6113V120.8875A94.2333,94.2333,0,0,0,615.85,26.6546ZM454.39,331.7708a19.3138,19.3138,0,0,1-.15-5.0634,12.5389,12.5389,0,0,1,1.2217-4.3057,8.8635,8.8635,0,0,1,6.6142-4.8457q7.396-1.3213,10.9736,6.3545Zm8.9111,36.417,27.3428-4.9629,5.7949,32.001a7.8749,7.8749,0,0,0,1.2627,3.1367,7.61,7.61,0,0,0,2.3164,2.1993,8.97,8.97,0,0,0,3.0518,1.1533,9.6109,9.6109,0,0,0,3.4042-.0088,8.1591,8.1591,0,0,0,5.2715-3.3682,8.38,8.38,0,0,0,1.2705-2.8525,7.7763,7.7763,0,0,0,.0694-3.2744l-5.5762-32.0459,26.2842-4.7725,5.6318,31.0918a29.5055,29.5055,0,0,1-.3525,13.0264,27.9127,27.9127,0,0,1-5.5557,10.77,33.1863,33.1863,0,0,1-9.9014,7.9492,44.6316,44.6316,0,0,1-13.4521,4.5811,47.2136,47.2136,0,0,1-14.1953.499,34.36,34.36,0,0,1-12.3281-3.83,28.2623,28.2623,0,0,1-9.3008-8.08,28.6314,28.6314,0,0,1-5.0889-12.21Zm-132.7022,24.08-12.88,2.3369a19.5378,19.5378,0,0,0,4.49-3.0224,22.1271,22.1271,0,0,0,6.2817-11.1475ZM301.9717,369.515a12.8762,12.8762,0,0,1-1.9194-4.919,13.1034,13.1034,0,0,1,.0727-5.0761,13.5764,13.5764,0,0,1,1.8711-4.5577,12.5905,12.5905,0,0,1,3.4453-3.497,12.1349,12.1349,0,0,1,4.8-1.9278,11.3341,11.3341,0,0,1,4.7564.1582,13.1264,13.1264,0,0,1,4.354,1.9473,13.6533,13.6533,0,0,1,3.4248,3.4531A13.0613,13.0613,0,0,1,324.79,359.67l.0888.5029a12.8829,12.8829,0,0,1-.0849,5.0156,13.4043,13.4043,0,0,1-1.8711,4.5488,12.8591,12.8591,0,0,1-3.4082,3.53,11.4821,11.4821,0,0,1-4.6993,1.9443,12.1019,12.1019,0,0,1-4.9467-.13,12.63,12.63,0,0,1-4.4556-1.9971A13.3072,13.3072,0,0,1,301.9717,369.515ZM287.708,400.0511l26.2632-4.7685,5.6143,31.9687a7.9605,7.9605,0,0,0,1.2641,3.1416,7.6022,7.6022,0,0,0,2.3169,2.1953,8.893,8.893,0,0,0,3.0518,1.1524,9.5009,9.5009,0,0,0,3.4048-.0078,8.1666,8.1666,0,0,0,5.271-3.3692,8.3577,8.3577,0,0,0,1.27-2.8476,7.8337,7.8337,0,0,0,.0693-3.2793l-5.6123-31.8477,26.4136-4.707,5.5351,30.8291a29.519,29.519,0,0,1-.353,13.0263,27.8793,27.8793,0,0,1-5.5517,10.7735,33.21,33.21,0,0,1-9.9014,7.9453,44.7605,44.7605,0,0,1-13.4522,4.5859,47.1075,47.1075,0,0,1-14.1948.4951,34.4334,34.4334,0,0,1-12.3281-3.8271,28.2155,28.2155,0,0,1-9.3013-8.083,28.5927,28.5927,0,0,1-5.0864-12.207Z" transform="translate(-172.6514 -26.6546)"/><path class="cls-1" d="M247.1885,313.7982a13.8739,13.8739,0,0,0-3.583-3.6436,14.7589,14.7589,0,0,0-4.9707-2.2324,14.2044,14.2044,0,0,0-5.9859-.1377,15.6566,15.6566,0,0,0-5.1538,1.8955,14.2846,14.2846,0,0,0-4.0459,3.4776,13.7317,13.7317,0,0,0-2.414,4.6865,11.7467,11.7467,0,0,0-.2637,5.4336,12.1848,12.1848,0,0,0,2.0127,4.9306,13.7026,13.7026,0,0,0,8.7324,5.62,15.5692,15.5692,0,0,0,5.77.0078,15.078,15.078,0,0,0,9.1309-5.4209,13.2828,13.2828,0,0,0,2.3818-4.6787,12.0883,12.0883,0,0,0,.2193-5.49A11.5692,11.5692,0,0,0,247.1885,313.7982Z" transform="translate(-172.6514 -26.6546)"/><polygon class="cls-1" points="190.296 269.218 200.465 281.686 239.097 257.015 222.277 236.252 190.296 269.218"/></svg>